<svg xmlns="http://www.w3.org/2000/svg" viewBox="0 0 118.53 176.75">
  <title>Asset 1</title>
  <g id="Layer_2" data-name="Layer 2">
    <g id="Layer_5" data-name="Layer 5">
      <g>
        <g>
          <g>
            <path d="M99.21,93.7c-3.29-.29-6.52-.82-9.65-1.33,1.12,0,2.22,0,3.26-.08,7.21-.43,18.4,2.6,19.89,5.42a1.48,1.48,0,0,0,1.32.8,1.46,1.46,0,0,0,.7-.18,1.48,1.48,0,0,0,.63-2c-2.43-4.64-15.49-7.44-22.72-7a79,79,0,0,1-12.48-.5c3.06-.15,6-.38,8.67-.61,9.87-.85,17-1.46,22.33,3.69a1.5,1.5,0,0,0,1,.42,1.5,1.5,0,0,0,1-2.58c-6.29-6.1-14.39-5.4-24.66-4.52a126.52,126.52,0,0,1-20.89.52,1.5,1.5,0,0,0-1.61,1.38,1.42,1.42,0,0,0,.06.46A18.69,18.69,0,0,0,62,86.35a1.54,1.54,0,0,0-1.7,1.28,1.51,1.51,0,0,0,1.29,1.69c2.41.33,5.56,1.73,9,3.8a1.5,1.5,0,0,0,1.24.75c.56.35,1.12.71,1.69,1.09a1.37,1.37,0,0,0,.62.46l.17.06c1,.71,2.11,1.47,3.19,2.27a1,1,0,0,0-.07.18,1.5,1.5,0,0,0,1.27,1.7c.54.08,1.07.18,1.61.27,1.28,1,2.56,2.07,3.83,3.16a1.48,1.48,0,0,0,.43,2.67,39.85,39.85,0,0,1,4.21,1.46c6,5.62,11.42,11.62,14.54,16.5,2.61,4.09,2.44,5.61,2.33,6a1.51,1.51,0,0,0,1,1.88,1.59,1.59,0,0,0,.43.06,1.51,1.51,0,0,0,1.44-1.06c.52-1.71-.16-4.09-1.92-7.15a1.48,1.48,0,0,0,.64-1.56c-1.19-5.45-4.64-9.49-8.48-12.43,5.68,3.6,9.67,7.48,9.67,10.06a1.5,1.5,0,0,0,3,0c0-5.48-8.84-12-17.81-16.31,8.86,3,15.36,6.91,16.12,10.38a1.49,1.49,0,0,0,1.46,1.18,1.73,1.73,0,0,0,.32,0,1.51,1.51,0,0,0,1.15-1.79c-1.14-5.23-9.5-9.91-19.5-13,7,1,14.84,3.84,16.69,7.64a1.48,1.48,0,0,0,1.34.85,1.55,1.55,0,0,0,.66-.15,1.51,1.51,0,0,0,.69-2c-2.6-5.36-12.53-8.7-20.66-9.53A74.19,74.19,0,0,1,79.44,94c2.89.27,5.87.75,9,1.26,3.4.56,6.92,1.14,10.55,1.47,7,.63,13.59,4.21,13.59,7.38a1.5,1.5,0,0,0,3,0C115.53,98.57,107.06,94.4,99.21,93.7ZM72.69,90.87l0,0,.13,0Z" style="fill: none;stroke: #010101;stroke-linecap: round;stroke-linejoin: round;stroke-width: 6px"/>
            <path d="M15.74,15.5a26.19,26.19,0,0,1,3.44-1.58l-.33,0A3.82,3.82,0,0,0,15.74,15.5Z" style="fill: none;stroke: #010101;stroke-linecap: round;stroke-linejoin: round;stroke-width: 6px"/>
            <path d="M19.76,19.66a13.93,13.93,0,0,1,3.88-.9c.54,0,1.47-.13,2.46-.26l.38-.05a15,15,0,0,0-5.23-.21c-2.82.71-7.54,3.94-8.64,5.73l.12-.14a18.07,18.07,0,0,1,6.18-3.89Z" style="fill: none;stroke: #010101;stroke-linecap: round;stroke-linejoin: round;stroke-width: 6px"/>
            <path d="M20,30.69l.87-.78a33.76,33.76,0,0,1,4.81-3.25l.61-.35a28.38,28.38,0,0,1,6.31-3,2.91,2.91,0,0,1-.25-.42,26.46,26.46,0,0,0-5.68.32c-1.16.15-2.16.28-2.95.3a11.9,11.9,0,0,0-2.49.66l-1,.31a14.73,14.73,0,0,0-4.07,2.57,7,7,0,0,0-1.27,3A2.36,2.36,0,0,1,15,33a2.13,2.13,0,0,1-.49.46c.63.25,1.37.47,1.95.74A38.8,38.8,0,0,1,20,30.69Z" style="fill: none;stroke: #010101;stroke-linecap: round;stroke-linejoin: round;stroke-width: 6px"/>
            <path d="M36,15.69c.36.09.82.17,1.34.25a2.85,2.85,0,0,1-.12-.31A7.1,7.1,0,0,0,33.11,11a6.14,6.14,0,0,1,1.58,3.18,2.33,2.33,0,0,1-.17,1.18Z" style="fill: none;stroke: #010101;stroke-linecap: round;stroke-linejoin: round;stroke-width: 6px"/>
            <path d="M73.19,38.25a11.56,11.56,0,0,1,2.27-2.07,4.47,4.47,0,0,0,.76-.61c.09-.23.27-.62.5-1.12.6-1.32,1.11-2.46,1.52-3.44-.53.68-1.1,1.37-1.67,2a22.7,22.7,0,0,0-2.2,2.84C74,36.47,73.62,37.32,73.19,38.25Z" style="fill: none;stroke: #010101;stroke-linecap: round;stroke-linejoin: round;stroke-width: 6px"/>
            <path d="M41.78,15.34a2.35,2.35,0,0,1-.53,1.14l1.31.19A5.81,5.81,0,0,1,41.78,15.34Z" style="fill: none;stroke: #010101;stroke-linecap: round;stroke-linejoin: round;stroke-width: 6px"/>
            <path d="M75.43,9.39c-.4.07-.75.16-1,.24a24.76,24.76,0,0,0-6.32,3.73l-.37.31a27.55,27.55,0,0,0-2.19,2A4.47,4.47,0,0,1,67,16l.25.12s0,0,0-.06a2.38,2.38,0,0,1,4.36-1.56c.18,0,.41,0,.65,0a2.34,2.34,0,0,1-.23-.75C71.8,11.5,73.4,10.2,75.43,9.39Z" style="fill: none;stroke: #010101;stroke-linecap: round;stroke-linejoin: round;stroke-width: 6px"/>
            <path d="M64.76,9.94l.2-.18a30.31,30.31,0,0,1,4.17-2.85,29.17,29.17,0,0,0-6.59,1.62A2.36,2.36,0,0,1,64.76,9.94Z" style="fill: none;stroke: #010101;stroke-linecap: round;stroke-linejoin: round;stroke-width: 6px"/>
            <path d="M53.38,13.7A28.38,28.38,0,0,0,50.86,19a8,8,0,0,1,.81.51c-.32-3.8,3.37-7.25,6.81-9.27C56.12,11.33,54.16,12.58,53.38,13.7Z" style="fill: none;stroke: #010101;stroke-linecap: round;stroke-linejoin: round;stroke-width: 6px"/>
            <path d="M38.44,23.23a32.79,32.79,0,0,0,5.74.08,2.36,2.36,0,0,1,1-1.33c-1.91-.44-4.09-.73-6-1-.92-.12-1.77-.24-2.54-.36a3.64,3.64,0,0,1,.26,1,2.37,2.37,0,0,1-.33,1.49Z" style="fill: none;stroke: #010101;stroke-linecap: round;stroke-linejoin: round;stroke-width: 6px"/>
            <path d="M40.4,43.33a2.29,2.29,0,0,1,.2-.93,1.76,1.76,0,0,1-.4-.07.31.31,0,0,1,0,.08A2.29,2.29,0,0,1,40,43.58,2,2,0,0,0,40.4,43.33Z" style="fill: none;stroke: #010101;stroke-linecap: round;stroke-linejoin: round;stroke-width: 6px"/>
            <path d="M66.17,35.91a15.67,15.67,0,0,0-1.64,2.44A23.71,23.71,0,0,0,63.92,43a33.1,33.1,0,0,1-.45,3.92,16.8,16.8,0,0,1-1.16,3.16,9.71,9.71,0,0,0-1.05,3.19,2.08,2.08,0,0,1,0,.25c.68-1,1.35-2,1.62-2.51a99.12,99.12,0,0,0,3.86-9.47,56.58,56.58,0,0,1,3.49-8A26.53,26.53,0,0,1,72.94,30c1.19-1.41,2.84-3.36,3.09-4.36a14.09,14.09,0,0,0-.42-3.13c-.13-.68-.26-1.31-.32-1.85a2.34,2.34,0,0,1,.48-1.73l-.63.07c-1.75.19-4,.44-5.7-.18A10.74,10.74,0,0,1,70,21.21c.42,3.06-.66,8.62-1.6,11.1A15.91,15.91,0,0,1,66.17,35.91Z" style="fill: none;stroke: #010101;stroke-linecap: round;stroke-linejoin: round;stroke-width: 6px"/>
            <path d="M65,56.39c-1.06,1.54-3.54,5.14-3.57,6.33a2.34,2.34,0,0,1,.06.91c1.08-4.18,4-7.18,5.8-9a14,14,0,0,0,1.13-1.21c.17-.27.4-.6.65-1a19.34,19.34,0,0,0,1.38-2.23,20.13,20.13,0,0,0,.47-4c.07-1.1.14-2.16.26-3.14a101.37,101.37,0,0,1-4.09,10A31.7,31.7,0,0,1,65,56.39Z" style="fill: none;stroke: #010101;stroke-linecap: round;stroke-linejoin: round;stroke-width: 6px"/>
            <path d="M54.15,21.93c.32-.08.8-.21,1.15-.33a2.39,2.39,0,0,1,1.81-1.23,2.53,2.53,0,0,1,.87.07,4,4,0,0,1,1.68-2.78,6.08,6.08,0,0,1,.56-.38,3,3,0,0,1-.09-.41,4.22,4.22,0,0,1,.49-2.42C58.3,15.9,56.27,18,56.41,19.09a2.38,2.38,0,0,1-2.09,2.64,2.17,2.17,0,0,1-.72,0c0,.12.1.23.14.35Z" style="fill: none;stroke: #010101;stroke-linecap: round;stroke-linejoin: round;stroke-width: 6px"/>
            <path d="M71.27,57.42l-.55.56c-.48.48-1,1-1.54,1.62A21.25,21.25,0,0,0,71.27,57.42Z" style="fill: none;stroke: #010101;stroke-linecap: round;stroke-linejoin: round;stroke-width: 6px"/>
            <path d="M41.12,54.56a6.57,6.57,0,0,0-.32,1,3.46,3.46,0,0,0,0,.44C40.9,55.54,41,55,41.12,54.56Z" style="fill: none;stroke: #010101;stroke-linecap: round;stroke-linejoin: round;stroke-width: 6px"/>
            <path d="M38.92,37.52a12.19,12.19,0,0,0-1.52,1.7,2.43,2.43,0,0,1-.28,1l.61,0a2.37,2.37,0,0,1,.76.1A4.56,4.56,0,0,1,39.44,37a3.84,3.84,0,0,0-.29.27Z" style="fill: none;stroke: #010101;stroke-linecap: round;stroke-linejoin: round;stroke-width: 6px"/>
            <path d="M47.49,14.65a36.83,36.83,0,0,1,2-3.68l.21-.27A22.57,22.57,0,0,0,46,13.15a2.08,2.08,0,0,0,.2.53A2.33,2.33,0,0,1,47.49,14.65Z" style="fill: none;stroke: #010101;stroke-linecap: round;stroke-linejoin: round;stroke-width: 6px"/>
            <path d="M49.48,24.33a2.65,2.65,0,0,1-.2-.64s-.13-.24-.63-.53a2.15,2.15,0,0,1,.15.58,3.61,3.61,0,0,1,0,1.09Z" style="fill: none;stroke: #010101;stroke-linecap: round;stroke-linejoin: round;stroke-width: 6px"/>
            <path d="M76.24,42.23a20.31,20.31,0,0,0-.54,4.3c-.08,1.32-.16,2.58-.34,3.68.54-1.41,1.21-3.3,1.82-5.05.81-2.3,1.59-4.51,2.21-6a13.38,13.38,0,0,1-1.12.9A5.56,5.56,0,0,0,76.24,42.23Z" style="fill: none;stroke: #010101;stroke-linecap: round;stroke-linejoin: round;stroke-width: 6px"/>
            <path d="M78,4.26c-.4-.09-.77-.16-1.09-.2a21.09,21.09,0,0,0-4.71.4,2.45,2.45,0,0,1-.22,1A11.23,11.23,0,0,1,73,5.08,28.3,28.3,0,0,1,78,4.26Z" style="fill: none;stroke: #010101;stroke-linecap: round;stroke-linejoin: round;stroke-width: 6px"/>
            <path d="M10.87,18.89a21,21,0,0,1,1.94-1.56A6.57,6.57,0,0,0,10.87,18.89Z" style="fill: none;stroke: #010101;stroke-linecap: round;stroke-linejoin: round;stroke-width: 6px"/>
            <path d="M101.56,35.84a12.63,12.63,0,0,0-2.16,5.1,22.77,22.77,0,0,1,1.28-2.21c.17-.23.36-.5.58-.77a31.91,31.91,0,0,0,2.54-7.26,21,21,0,0,0-.86-6.91c-.65-2-2.11-5-3-5.83a1.88,1.88,0,0,0-.35-.1,2.41,2.41,0,0,1,1,1.63,14.24,14.24,0,0,0,.87,2.07,15.57,15.57,0,0,1,1,2.42c.6,2.27.5,7.38.28,9.37A5.86,5.86,0,0,1,101.56,35.84Z" style="fill: none;stroke: #010101;stroke-linecap: round;stroke-linejoin: round;stroke-width: 6px"/>
            <path d="M97.45,17.52a10.58,10.58,0,0,1-2.69-.62,5.37,5.37,0,0,1-.81-.45,6.47,6.47,0,0,1,.68,1.46,9,9,0,0,0,.75,1.38c.14.23.29.47.43.72A2.36,2.36,0,0,1,97.45,17.52Z" style="fill: none;stroke: #010101;stroke-linecap: round;stroke-linejoin: round;stroke-width: 6px"/>
            <path d="M92.15,9.23a10,10,0,0,1,3.07,2.15,8.74,8.74,0,0,0,1.46,1.18,17,17,0,0,0,1.7.29l1,.15a14.94,14.94,0,0,0-1.69-1.4,29.3,29.3,0,0,0-6.65-2.78l0,.07C91.47,9,91.83,9.11,92.15,9.23Z" style="fill: none;stroke: #010101;stroke-linecap: round;stroke-linejoin: round;stroke-width: 6px"/>
            <path d="M35.8,33.92A21.62,21.62,0,0,1,38,32.13l-.89-.06A19.76,19.76,0,0,0,34.44,32a11.61,11.61,0,0,0-4.3,1.77,11.57,11.57,0,0,0-2.24,3.68,10,10,0,0,0,.21,1.37c.07.41.14.78.17,1.06a2.37,2.37,0,1,1-4.71.55c0-.19-.08-.44-.13-.71a8.48,8.48,0,0,1-.21-3.2A12.87,12.87,0,0,1,25,32.74a9.08,9.08,0,0,0-.84.65l-1,.86c-1.05.93-4.25,3.76-4.41,4.92a2.35,2.35,0,0,1-3.22,2.43,6.85,6.85,0,0,0-.5,2.88c.26,1.24,1.8,3.36,2.55,4.38a13.25,13.25,0,0,0,1.46,1.49,22.09,22.09,0,0,1,6.35-5.9,34.14,34.14,0,0,1,8-3.64,2.29,2.29,0,0,1-.74-1.45c-.23-2,1.32-3.67,2.93-5.24Z" style="fill: none;stroke: #010101;stroke-linecap: round;stroke-linejoin: round;stroke-width: 6px"/>
            <path d="M60.55,68.06c.93-.19,2.33-.61,3.68-1a1.45,1.45,0,0,0,1.26.44c.24,0,24.91-3.41,45.12,5.63a1.49,1.49,0,0,0,.61.13,1.5,1.5,0,0,0,.62-2.87c-9.12-4.07-18.94-5.74-27.22-6.31,8.25.08,19,1.08,27,4.3a1.59,1.59,0,0,0,.56.11,1.51,1.51,0,0,0,.56-2.9c-7.29-2.93-16.55-4.1-24.44-4.42,7-.34,16.31-.16,22.32,2.38a1.5,1.5,0,1,0,1.17-2.76c-6.3-2.66-15.55-3-22.75-2.67,5.82-.76,15.27-1.41,19,.81a1.46,1.46,0,0,0,.77.22,1.5,1.5,0,0,0,.78-2.79c-3.75-2.25-11-2.18-16.64-1.69h0c3.49-.85,9.1-1.8,11-1.05a1.5,1.5,0,0,0,1.09-2.79c-2.1-.82-6-.4-9.1.14,1.31-1.49,2.48-3.17,2.34-5.22-.42-6,1.41-8.72,2.5-10.37a4.79,4.79,0,0,0,1-2.09c.23-2,.3-7-.25-9a15.76,15.76,0,0,0-1-2.27,12.19,12.19,0,0,1-1-2.34,1.49,1.49,0,0,0-3,.35,11.77,11.77,0,0,0,1.23,3.27A14.73,14.73,0,0,1,98.68,25a33.39,33.39,0,0,1,.18,7.88,8.66,8.66,0,0,1-.52.84c-1.22,1.84-3.49,5.25-3,12.22.09,1.24-1.15,2.59-2.46,4A23.77,23.77,0,0,0,91,52.26a1.51,1.51,0,0,0-.34.52,6.84,6.84,0,0,0-.47.72,1.47,1.47,0,0,0,.09,1.41l-2.15.28a29.75,29.75,0,0,1,3.4-7.26,15.54,15.54,0,0,0,1.72-3.31c.19-.62.51-1.42.86-2.26.79-1.92,1.68-4.1,1.66-5.87A30.53,30.53,0,0,0,95,29.93,31.36,31.36,0,0,0,92.51,25L92,24.05c-.17-.3-.37-.68-.59-1.1a24.32,24.32,0,0,0-2.92-4.75,11.32,11.32,0,0,0-3.43-2.05c-.94-.43-2.89-1.34-3.1-1.86a1.49,1.49,0,0,0-3,.37,2,2,0,0,0,.07.35,17.61,17.61,0,0,0-4.35.13,15.37,15.37,0,0,1-3.67.15,1.47,1.47,0,0,0-1.58-1,1.49,1.49,0,0,0-1.31,1.65c.34,2.88,4,2.49,6.89,2.17A12.46,12.46,0,0,1,78.8,18a14.18,14.18,0,0,1,5,4.58c.87,1.71,1.14,6.26.94,8.51-.08.94-1.59,3.29-2.49,4.7-.57.89-1.07,1.66-1.38,2.26-.62,1.23-1.68,4.23-2.8,7.4-1,2.91-2.08,5.92-2.61,7A23.85,23.85,0,0,1,68.93,61a1.49,1.49,0,0,0-.21,2.09,1.47,1.47,0,0,0,1.33.53,1.42,1.42,0,0,0,.76-.32c.28-.23.49-.47.75-.7a1.5,1.5,0,0,0-.14,1,1.43,1.43,0,0,0,.13.28l-.14.12c-1,0-1.92.12-2.71.18a2.15,2.15,0,0,1-.67-.49,2.36,2.36,0,0,1-.48-2,10.78,10.78,0,0,0-1.24,2.66l-1,.12c.85-3.11,3.15-5.51,4.73-7.12a13.35,13.35,0,0,0,1.64-1.85c.15-.24.36-.54.58-.87a20.5,20.5,0,0,0,1.76-2.91,19,19,0,0,0,.76-5.24,17.87,17.87,0,0,1,.62-4.64,6.42,6.42,0,0,1,2.3-2.54,5.33,5.33,0,0,0,2-2.18l.48-1.06c2.54-5.56,3.35-7.86,3.2-9.13a1.51,1.51,0,0,0-1.65-1.32,1.48,1.48,0,0,0-1.31,1.63c0,.74-1,3.29-2.94,7.58L77,35.94c-.12.29-.45.54-1,1a9.28,9.28,0,0,0-3.21,3.63c-.65,1.31-.78,3.47-.93,5.76a19.24,19.24,0,0,1-.53,4.29A20,20,0,0,1,69.84,53l-.63.95A14.27,14.27,0,0,1,68,55.27c-1.9,1.92-4.76,4.83-5.68,9A1.49,1.49,0,0,0,63.42,66a1.64,1.64,0,0,0,.38,0,.76.76,0,0,0,0,.15,1.39,1.39,0,0,0,.34.71.45.45,0,0,1-.11,0,2.37,2.37,0,0,1-2.6-2.82,2.35,2.35,0,0,1-1.53,1.48,2.16,2.16,0,0,1-.44.1,2.38,2.38,0,0,1-2.54-1.64c-.72-2.26.62-4.94,2.83-8.32a2.08,2.08,0,0,1-.57.15,2.37,2.37,0,0,1-2.63-2.08c-.23-1.93.65-3.92,1.42-5.67a13.57,13.57,0,0,0,.86-2.24,31.1,31.1,0,0,0,.36-3.28,24.37,24.37,0,0,1,.89-5.9,15.89,15.89,0,0,1,2.3-3.66A15.1,15.1,0,0,0,64,30.64a25.35,25.35,0,0,0,1.35-8.79A8,8,0,0,0,65,20.47a6.5,6.5,0,0,0-2.31.87,2.38,2.38,0,0,1-2.05,1.84,2.3,2.3,0,0,1-.87-.06c-.18,2.29-2.88,3-4.39,3.41a9.66,9.66,0,0,0-1.09.32c-1,.56-2.72,1.83-4.13,2.85-.67.48-1.28.92-1.76,1.25l-.4.27c.48-.26.91-.5,1.21-.7a21.1,21.1,0,0,1,4.38-1.93c1.48-.54,4.54-1.66,5.09-2.44a2.38,2.38,0,0,1,4.72.54c-.32,3.5-4.5,5-8.19,6.36a20.24,20.24,0,0,0-3.35,1.41,31.94,31.94,0,0,1-2.93,1.64c-1.57.83-5.22,2.73-5.69,3.8A2.33,2.33,0,0,1,43,41,2.32,2.32,0,0,1,44.75,42c.56-.48,1-.88,1.37-1.13s.75-.57,1.23-.91c.86-.61,3.09-2.2,3.5-3a2.37,2.37,0,0,1,4.55-1,2.09,2.09,0,0,1,.56-.14A2.39,2.39,0,0,1,58.6,38c.2,1.71-.63,3.6-1.44,5.43a15.86,15.86,0,0,0-.73,1.84A23.81,23.81,0,0,0,56.07,52c.13.85.29,1.58.46,2.36A26.8,26.8,0,0,1,57.16,58a11,11,0,0,1-.35,3.25,9.81,9.81,0,0,0-.31,2.07,2.37,2.37,0,0,1-1.6,3.81,2.28,2.28,0,0,1-1.54-.42s0-.06,0-.1A1.5,1.5,0,0,0,52.09,65H52a8.94,8.94,0,0,1,.15-4.65,8.86,8.86,0,0,0,.27-1.82,22.3,22.3,0,0,0-.54-3.07c-.18-.82-.37-1.67-.52-2.67a22.14,22.14,0,0,1-.12-4c-.46.47-.93.94-1.4,1.38a18.08,18.08,0,0,0-3.78,4.51,12.4,12.4,0,0,0-.71,3.73c.46,1.58.93,2.48,1.39,2.68A2.37,2.37,0,0,1,48,64.1a2.28,2.28,0,0,1-.36.46l-1.19-.08a1.44,1.44,0,0,0-.07-2.66c-.77-.32-1.35-1.32-1.92-3.32a12.14,12.14,0,0,1,.79-4.33,18.77,18.77,0,0,1,3.95-4.73c.72-.68,1.39-1.33,2-2a1.48,1.48,0,0,0-2.22-2c-.54.61-1.17,1.21-1.84,1.85a21.11,21.11,0,0,0-4.53,5.51c-.62,1.17-1.47,4.92-1,6.51a13.44,13.44,0,0,0,1.1,2.77l-1.1-.16-.06-.11s0,.06,0,.1l-.89-.12a1.5,1.5,0,0,0,0-.22c0-.28-.11-.79-.21-1.42a38.74,38.74,0,0,1-.56-4.64A21.74,21.74,0,0,1,43,49.16a37.3,37.3,0,0,1,5.5-5.22c.28-.23.66-.5,1.08-.8,2.4-1.72,5.4-3.86,5.1-6.36a1.48,1.48,0,0,0-3,.33c0,.86-2.93,2.93-3.88,3.62-.46.33-.88.63-1.2.88-.64.51-1.51,1.24-2.4,2a4.1,4.1,0,0,0,0-.49,1.49,1.49,0,1,0-3,.35c.1.86-3.35,1.7-5.2,2.15-1.09.26-2.21.54-3.23.87a30.42,30.42,0,0,0-5.62,3,17.62,17.62,0,0,0-4,4.4l-1.48-.19a1,1,0,0,0,.08-.34c.07-1.14,3.5-4.52,5.47-5.63,3.6-2,6.44-3.61,10.63-3.8a1.49,1.49,0,1,0-.13-3c-4.9.22-8.16,2.06-12,4.18-1.37.77-6.79,4.89-7,8.05a1.19,1.19,0,0,0,0,.32c-3.07-.08-6.32.3-8.59,1.81a1.5,1.5,0,0,0,.83,2.75A1.47,1.47,0,0,0,12,57.9c2.39-1.59,6.73-1.5,10.27-1a1.61,1.61,0,0,0,.08.38c-5.59-.12-13.37.47-16.77,4.31a1.49,1.49,0,0,0,.13,2.11,1.45,1.45,0,0,0,1,.38,1.47,1.47,0,0,0,1.12-.51c3.57-4,15.84-3.46,20.26-2.9a.86.86,0,0,0,.23,0l.06,0,.47.31C18.92,60.82,7,62.34,3.17,69.67a1.5,1.5,0,0,0,.63,2,1.46,1.46,0,0,0,.7.18,1.5,1.5,0,0,0,1.33-.8c3.74-7.1,18.6-7.64,29.22-6.84C23.71,64.5,9.94,66.5,4.44,74A1.5,1.5,0,1,0,6.86,75.8c5.81-7.94,23.29-8.85,34.65-8.53-11.45.66-27.38,3.4-36.92,12.91a1.51,1.51,0,0,0,1.06,2.57,1.51,1.51,0,0,0,1.06-.44c13.11-13.09,40.7-12.38,46.1-12.1a1.5,1.5,0,0,0,1.5-1.16A45.74,45.74,0,0,0,60.55,68.06Zm17.51-14.3c.61-1.22,1.66-4.18,2.76-7.32,1-2.8,2.11-6,2.65-7,.24-.47.72-1.22,1.23-2,1.64-2.56,2.81-4.49,3-6,.2-2.27,0-7.57-1.25-10.12a9.42,9.42,0,0,0-1.19-1.72,5.36,5.36,0,0,1,1.11.71,24.22,24.22,0,0,1,2.45,4.1l.61,1.15.54,1a30.16,30.16,0,0,1,2.2,4.35,29.19,29.19,0,0,1,.65,5.74,15.68,15.68,0,0,1-1.43,4.7c-.38.91-.73,1.77-1,2.52A14.37,14.37,0,0,1,89,46.38a30.62,30.62,0,0,0-4.15,9.45,1.49,1.49,0,0,0,0,2.51c-1.3.1-2.46.2-3.42.3A12.5,12.5,0,0,0,83.16,54c0-.09,0-.17,0-.23a47.39,47.39,0,0,1,2.35-6.52,25.82,25.82,0,0,1,2.15-2.71A22.24,22.24,0,0,0,90,41.66a19,19,0,0,0,1.28-7.4,1.48,1.48,0,0,0-3,.34,17.64,17.64,0,0,1-.92,5.61,25.7,25.7,0,0,1-1.94,2.43A20.33,20.33,0,0,0,82.91,46a49.52,49.52,0,0,0-2.6,7.17c0,.08,0,.2-.06.33-.23,1.11-.82,4.07-3.51,5.48a1.49,1.49,0,0,0-.62,2,1.2,1.2,0,0,0,.36.35l-1.12.1,0,0a2.28,2.28,0,0,1-.26-1.07c-.35.43-.75.85-1.14,1.27-.52.07-1,.14-1.35.22a1.6,1.6,0,0,0-.23.1A28.39,28.39,0,0,0,78.06,53.76ZM44.62,64.37a1.34,1.34,0,0,0,.07-.18c.11.06.2.14.32.2Zm-8.31-3.05a1.46,1.46,0,0,0-1.06-1.56,9.72,9.72,0,0,1-3.53-3.06,6.79,6.79,0,0,1,1.17-2.1,13.08,13.08,0,0,1,2.72-1,13,13,0,0,0,2-.7A11.4,11.4,0,0,0,37,55a24.45,24.45,0,0,0,.55,5.58c.06.33.1.61.13.85Zm-7.45-9.25a28.28,28.28,0,0,1,4.91-2.72c.92-.29,2-.55,3-.8a35.7,35.7,0,0,0,3.76-1.07,24.82,24.82,0,0,0-1.4,2.25,1.48,1.48,0,0,0-2.72.46,12.9,12.9,0,0,1-1.66.55,14.78,14.78,0,0,0-3.45,1.33,7.51,7.51,0,0,0-2.59,4.79,2.68,2.68,0,0,0,.29,1,1.55,1.55,0,0,0-.6-.22l-.42,0,0-.11a1.46,1.46,0,0,0,.62-.83,1.47,1.47,0,0,0-.42-1.44,10.1,10.1,0,0,1,1.29-2.48.57.57,0,0,0-.13.08,10.81,10.81,0,0,0-2,2l-1-.22A12.3,12.3,0,0,1,28.86,52.07Zm.56,8a1.44,1.44,0,0,0,.31-.7,1.2,1.2,0,0,0,0-.38A12.86,12.86,0,0,0,31.79,61L30.34,61A10.18,10.18,0,0,1,29.42,60Z" style="fill: none;stroke: #010101;stroke-linecap: round;stroke-linejoin: round;stroke-width: 6px"/>
            <path d="M36.1,54.87c0-.17.07-.34.11-.53l-.35.11a13.77,13.77,0,0,0-2.4.86,6.36,6.36,0,0,0-.75,1.28,10.28,10.28,0,0,0,2.81,2.32,2.31,2.31,0,0,1,.93.49A17,17,0,0,1,36.1,54.87Z" style="fill: none;stroke: #010101;stroke-linecap: round;stroke-linejoin: round;stroke-width: 6px"/>
            <path d="M79.37,53.28c0-.15.06-.27.08-.36s0-.19.07-.3c-.25.64-.48,1.17-.67,1.55-.67,1.32-1.33,2.53-2.06,3.68A6.79,6.79,0,0,0,79.37,53.28Z" style="fill: none;stroke: #010101;stroke-linecap: round;stroke-linejoin: round;stroke-width: 6px"/>
            <path d="M49.81,44.09a2.37,2.37,0,0,1,1.89.55c0-.21.08-.41.13-.59a15,15,0,0,1,.76-2c-.8.67-1.67,1.29-2.47,1.87Z" style="fill: none;stroke: #010101;stroke-linecap: round;stroke-linejoin: round;stroke-width: 6px"/>
            <path d="M83.94,12.67a12.23,12.23,0,0,0-1.88.06,2.36,2.36,0,0,1,.72,1.18,6.07,6.07,0,0,0,1.08.68,2.41,2.41,0,0,1,0-1.81Z" style="fill: none;stroke: #010101;stroke-linecap: round;stroke-linejoin: round;stroke-width: 6px"/>
            <path d="M80.78,25a2.45,2.45,0,0,1,.9-.3,2.38,2.38,0,0,1,1.89.64A8.94,8.94,0,0,0,83,23a13,13,0,0,0-3-3.19,1.46,1.46,0,0,1,.07.3c0,.34.15.88.26,1.46A21.92,21.92,0,0,1,80.78,25Z" style="fill: none;stroke: #010101;stroke-linecap: round;stroke-linejoin: round;stroke-width: 6px"/>
            <path d="M88.29,32.59a2.45,2.45,0,0,1,1.22-.52,2.38,2.38,0,0,1,2.1.84,12.46,12.46,0,0,0-.35-1.86,30.88,30.88,0,0,0-2.11-4.17c-.21-.36-.39-.69-.55-1l-.21-.4a31.68,31.68,0,0,1,.14,5.93A5.62,5.62,0,0,1,88.29,32.59Z" style="fill: none;stroke: #010101;stroke-linecap: round;stroke-linejoin: round;stroke-width: 6px"/>
            <path d="M96.56,34.88c.38-.67.74-1.22,1-1.67.14-.21.3-.45.39-.61s0-.49.05-.77a2.37,2.37,0,0,1-.7.21,2.25,2.25,0,0,1-1.07-.13C96.41,32.92,96.51,34,96.56,34.88Z" style="fill: none;stroke: #010101;stroke-linecap: round;stroke-linejoin: round;stroke-width: 6px"/>
            <path d="M92.26,48.39c-.47.78-1,1.64-1.5,2.59.47-.58,1-1.12,1.47-1.66,1.07-1.16,2.29-2.48,2.23-3.34,0-.71-.07-1.37-.07-2-.13.34-.24.65-.32.91A16.13,16.13,0,0,1,92.26,48.39Z" style="fill: none;stroke: #010101;stroke-linecap: round;stroke-linejoin: round;stroke-width: 6px"/>
            <path d="M78.15,14a2.12,2.12,0,0,1,.2-.6,7.26,7.26,0,0,0-1.62.56s0,0,0,.07Q77.46,14,78.15,14Z" style="fill: none;stroke: #010101;stroke-linecap: round;stroke-linejoin: round;stroke-width: 6px"/>
            <path d="M86.36,47.68A47.71,47.71,0,0,0,84.07,54s0,.12,0,.21a16.73,16.73,0,0,1-.47,1.87l.35-.23c0-.05,0-.09,0-.14a31.08,31.08,0,0,1,4.28-9.79c.4-.66.78-1.29,1-1.8l-.86,1A28.49,28.49,0,0,0,86.36,47.68Z" style="fill: none;stroke: #010101;stroke-linecap: round;stroke-linejoin: round;stroke-width: 6px"/>
            <path d="M84.77,42.06a28.73,28.73,0,0,0,1.84-2.28,17.64,17.64,0,0,0,.81-5.07.48.48,0,0,0,0-.12c-.52,1-1.19,2.06-2,3.28-.5.77-1,1.5-1.19,1.93-.45.9-1.37,3.48-2.26,6a2.56,2.56,0,0,0,.11-.24A21.53,21.53,0,0,1,84.77,42.06Z" style="fill: none;stroke: #010101;stroke-linecap: round;stroke-linejoin: round;stroke-width: 6px"/>
            <path d="M83.8,31c0-.42.06-.9.06-1.4a51.4,51.4,0,0,1-2.08,5.17A17,17,0,0,0,83.8,31Z" style="fill: none;stroke: #010101;stroke-linecap: round;stroke-linejoin: round;stroke-width: 6px"/>
            <path d="M54.22,20.84a1.48,1.48,0,0,0,1.3-1.64c-.27-2.31,4.5-5.93,7.53-6.89a1.48,1.48,0,0,0-.9-2.83c-3.62,1.15-10.1,5.62-9.58,10.06A1.48,1.48,0,0,0,54.22,20.84Z" style="fill: none;stroke: #010101;stroke-linecap: round;stroke-linejoin: round;stroke-width: 6px"/>
            <path d="M45.29,17.4a1.63,1.63,0,0,0,.38,0,1.49,1.49,0,0,0,.09-2.94,2.16,2.16,0,0,1-.61-1.67,20,20,0,0,1,5.47-3.51,1.49,1.49,0,1,0-.94-2.82,22,22,0,0,0-6.84,4.45,4,4,0,0,0-.32,3.89A3.74,3.74,0,0,0,45.29,17.4Z" style="fill: none;stroke: #010101;stroke-linecap: round;stroke-linejoin: round;stroke-width: 6px"/>
            <path d="M31.75,9.83c1.51-.13,5,1.41,6.28,5.54a1.48,1.48,0,0,0,1.59,1l.26-.05a1.49,1.49,0,0,0,1-1.86c-1.71-5.6-6.6-7.87-9.37-7.63a1.48,1.48,0,0,0-1.36,1.6A1.5,1.5,0,0,0,31.75,9.83Z" style="fill: none;stroke: #010101;stroke-linecap: round;stroke-linejoin: round;stroke-width: 6px"/>
            <path d="M10.19,26.34a1.49,1.49,0,0,0,1.3-1.65c-.24-2,5.89-6.39,9.55-7.31,2.77-.7,8.79.78,12.39,1.67l1.65.4c1.08.25,2.53.44,4.21.66,3.46.46,10.64,1.4,10.88,3.47a1.51,1.51,0,0,0,.54,1c-.91.62-1.9,1.34-2.83,2-.65.47-1.24.9-1.7,1.22s-1,.69-1.68,1.1a1.77,1.77,0,0,0,0-.46,1.49,1.49,0,0,0-.89-1.19A5.31,5.31,0,0,0,47.22,26a2.62,2.62,0,0,0,.7-2.15A1.49,1.49,0,0,0,45,24c-1,.5-4.73.24-6.58.11a25.63,25.63,0,0,0-5-.07c-1.76.28-4.24,1.65-6.64,3l-.61.35a34.55,34.55,0,0,0-4.64,3.13l-.89.79c-3.18,2.82-6,5.56-5.7,8.22a1.49,1.49,0,0,0,3-.35c-.16-1.33,3.38-4.46,4.71-5.64.36-.31.68-.6.94-.84A29.84,29.84,0,0,1,27.62,30l.63-.36c1.48-.86,4.25-2.45,5.61-2.67a26.45,26.45,0,0,1,4.32.1c1.57.11,3,.19,4.17.19a1.47,1.47,0,0,0-.77,1,20.12,20.12,0,0,1-4.24,0,20.32,20.32,0,0,0-3.43-.06A14.75,14.75,0,0,0,27.46,31,14.55,14.55,0,0,0,24.1,36.7a8,8,0,0,0,.21,2.84c.06.3.12.57.14.78A1.49,1.49,0,0,0,27.4,40c0-.26-.1-.61-.17-1A8,8,0,0,1,27,37.31a12.12,12.12,0,0,1,2.51-4.19,12.31,12.31,0,0,1,4.8-2,21,21,0,0,1,2.82.08c1.4.1,2.58.16,3.58.13a30.51,30.51,0,0,0-4.29,3.24l-.2.21c-1.46,1.42-2.86,2.93-2.68,4.49a1.49,1.49,0,0,0,3-.24,7.87,7.87,0,0,1,1.79-2.13l.22-.22a48.37,48.37,0,0,1,6.53-4.61c1.07-.67,2.07-1.31,2.82-1.83L49.62,29c1.42-1,3.2-2.31,4.25-2.91a8.66,8.66,0,0,1,1.26-.4c1.58-.41,4-1.05,3.73-3.1a1.48,1.48,0,0,0-1.65-1.3,1.46,1.46,0,0,0-1.24,1,12.47,12.47,0,0,1-1.6.49c-.46.13-.88.24-1.26.38-.23-1.73-1.51-2.91-3.32-3.76a27.29,27.29,0,0,1,2.86-6.22C55.06,9.75,65.42,6.07,69.83,6a1.49,1.49,0,1,0-.07-3c-5.2.12-16.5,4.14-19.55,8.49a30.17,30.17,0,0,0-3.21,7,59.22,59.22,0,0,0-7.32-1.27c-1.54-.2-3-.39-3.93-.61l-1.61-.39-1.33-.33a1.49,1.49,0,0,0,1-1.58c-.4-3.41-6.41-6.62-6.47-6.66l-.6-.31c-2.11-1.13-5.29-2.83-10-.8a1.49,1.49,0,0,0,1.18,2.73c3.4-1.47,5.45-.37,7.43.69l.65.34c2,1,4.75,3.34,4.87,4.36a1.47,1.47,0,0,0,.43.87c-.72-.16-1.47-.33-2.22-.48v-.18c-.43-3.65-7.67-4.58-9.88-4.78-1.46-.13-4.29.16-6.89,3.57a1.48,1.48,0,1,0,2.36,1.8c1.65-2.16,3.23-2.5,4.27-2.41a21.22,21.22,0,0,1,6,1.36,14,14,0,0,0-4.6.14C17.07,15.32,8,20.21,8.54,25A1.49,1.49,0,0,0,10.19,26.34Z" style="fill: none;stroke: #010101;stroke-linecap: round;stroke-linejoin: round;stroke-width: 6px"/>
            <path d="M12.19,32.71a1.46,1.46,0,0,0,1.07.3,1.51,1.51,0,0,0,1-.57,1.48,1.48,0,0,0-.19-2,6.79,6.79,0,0,1,1.49-4A14.53,14.53,0,0,1,20,23.63l.95-.31a11.56,11.56,0,0,1,2.75-.7c.74,0,1.72-.15,2.86-.29,1.69-.22,5.6-.71,6.49-.15a1.5,1.5,0,0,0,1.63,1.19A1.48,1.48,0,0,0,36,21.72a2.63,2.63,0,0,0-1-1.83c-1.64-1.29-4.8-1-8.76-.51-1,.13-2,.25-2.55.27a13.21,13.21,0,0,0-3.62.86l-.87.28a17.19,17.19,0,0,0-5.78,3.64,9.84,9.84,0,0,0-2.28,6.14A2.87,2.87,0,0,0,12.19,32.71Z" style="fill: none;stroke: #010101;stroke-linecap: round;stroke-linejoin: round;stroke-width: 6px"/>
            <path d="M42.33,39.87c-.15-1.25,4.28-3.57,6.17-4.56a32.06,32.06,0,0,0,2.84-1.59,20.62,20.62,0,0,1,3.55-1.51c3.61-1.31,7.34-2.67,7.6-5.59A1.5,1.5,0,0,0,61.14,25a1.48,1.48,0,0,0-1.61,1.35c-.09,1-3.85,2.42-5.66,3.07a21.27,21.27,0,0,0-4.19,1.84c-.58.39-1.54.89-2.56,1.42-3.81,2-8.13,4.26-7.74,7.54a1.49,1.49,0,0,0,2.95-.35Z" style="fill: none;stroke: #010101;stroke-linecap: round;stroke-linejoin: round;stroke-width: 6px"/>
            <path d="M56.35,43.05c.75-1.73,1.53-3.51,1.36-5a1.49,1.49,0,1,0-3,.35,10.86,10.86,0,0,1-1.13,3.43,17.63,17.63,0,0,0-.94,2.42,27.17,27.17,0,0,0-.44,8.33c.15,1,.33,1.81.51,2.62a24.55,24.55,0,0,1,.56,3.17A8.88,8.88,0,0,1,53,60.48c-.39,1.84-.83,3.93.52,5.34a1.49,1.49,0,0,0,1.25.45,1.56,1.56,0,0,0,.85-.4,1.49,1.49,0,0,0,.05-2.1c-.27-.28.08-2,.23-2.68a10.14,10.14,0,0,0,.35-3,27.26,27.26,0,0,0-.62-3.53c-.17-.77-.34-1.55-.47-2.42A24.51,24.51,0,0,1,55.57,45,15.09,15.09,0,0,1,56.35,43.05Z" style="fill: none;stroke: #010101;stroke-linecap: round;stroke-linejoin: round;stroke-width: 6px"/>
            <path d="M73.62,30.56A24.78,24.78,0,0,0,71,34a55.35,55.35,0,0,0-3.42,7.8,99.33,99.33,0,0,1-3.92,9.6,30.59,30.59,0,0,1-1.81,2.81C59,58.36,57,61.48,57.76,63.79a1.47,1.47,0,0,0,1.59,1,1.31,1.31,0,0,0,.27-.06,1.47,1.47,0,0,0,1-1.86c-.35-1.1,2.5-5.24,3.72-7a31.09,31.09,0,0,0,2-3.17,102.75,102.75,0,0,0,4.09-10,53.21,53.21,0,0,1,3.17-7.25,23.6,23.6,0,0,1,2.3-3c1.67-2,3.41-4,3.88-5.9a12.35,12.35,0,0,0-.37-4.85c-.12-.6-.23-1.16-.28-1.54a1.48,1.48,0,0,0-3,.34c.06.51.19,1.13.32,1.78a12.2,12.2,0,0,1,.4,3.54C76.59,27,74.94,29,73.62,30.56Z" style="fill: none;stroke: #010101;stroke-linecap: round;stroke-linejoin: round;stroke-width: 6px"/>
            <path d="M98.54,29.51a17.72,17.72,0,0,0-1.39-3.71A28.61,28.61,0,0,1,96,23a8.29,8.29,0,0,0-1.37-3.2,8.37,8.37,0,0,1-.83-1.57c-.74-2.27-2.94-4.08-7.15-5.84a1.48,1.48,0,1,0-1.15,2.73c3.25,1.37,5,2.68,5.47,4a10.94,10.94,0,0,0,1.12,2.21,6.58,6.58,0,0,1,1,2A17.72,17.72,0,0,0,94.43,27a25.51,25.51,0,0,1,1.16,2.86,1.48,1.48,0,0,0,1.64,1.3A1.5,1.5,0,0,0,98.54,29.51Z" style="fill: none;stroke: #010101;stroke-linecap: round;stroke-linejoin: round;stroke-width: 6px"/>
            <path d="M65.54,10.44l-.35.29c-2.24,1.92-4.42,4-4.18,6a1.48,1.48,0,0,0,.41.86,8.08,8.08,0,0,0-1.21.74A2.86,2.86,0,0,0,58.87,21a1.49,1.49,0,0,0,3-.11,6.39,6.39,0,0,1,3.71-1.33,6.7,6.7,0,0,1,.67,2.18A26.15,26.15,0,0,1,64.82,31a15,15,0,0,1-1.74,2.64A15.35,15.35,0,0,0,60.91,37a24.12,24.12,0,0,0-.84,5.67,30.28,30.28,0,0,1-.38,3.4,14.18,14.18,0,0,1-.91,2.41C58,50.23,57.23,52,57.42,53.7a1.48,1.48,0,1,0,2.95-.34,9.35,9.35,0,0,1,1.12-3.66,16.43,16.43,0,0,0,1.11-3A33,33,0,0,0,63,42.91a22.62,22.62,0,0,1,.67-4.86,14.32,14.32,0,0,1,1.76-2.68A15.38,15.38,0,0,0,67.6,32c.88-2.34,2-7.79,1.55-10.67-.12-.89-.66-3.85-2.43-4.53A5.15,5.15,0,0,0,64,16.75a1,1,0,0,0,0-.3c0-.38.61-1.28,3.16-3.45l.36-.32a25.69,25.69,0,0,1,6.66-3.9A29.28,29.28,0,0,1,80.92,8a18,18,0,0,1,4.88.91,19.8,19.8,0,0,0-4.61,0L81,9c-3.15.5-8.42,1.34-8,4.63a1.48,1.48,0,0,0,3-.14c.31-.29,1.42-.9,5.54-1.56l.22,0a24.68,24.68,0,0,1,9.15,1,7.65,7.65,0,0,1,1.82,1.4,10.14,10.14,0,0,0,2.49,1.84,11.29,11.29,0,0,0,2.72.58,11.9,11.9,0,0,1,2.54.52c1.14.91,2.76,4.3,3.41,6.33a22,22,0,0,1,.89,7.32,35.1,35.1,0,0,1-5.36,12.24,1.48,1.48,0,0,0,1.36,2.36,1.5,1.5,0,0,0,1-.59,38,38,0,0,0,5.91-13.53,24.15,24.15,0,0,0-1-8.71c-.48-1.48-2.31-6.08-4.39-7.74-.88-.71-2.38-.92-4-1.14a12.18,12.18,0,0,1-1.94-.36,9.18,9.18,0,0,1-1.7-1.32,9.46,9.46,0,0,0-2.78-2,16,16,0,0,0-1.57-.46,1.62,1.62,0,0,0,0-.22C89.8,5.36,81.11,5,81,5a31.61,31.61,0,0,0-7.74.92A28,28,0,0,0,65.54,10.44Z" style="fill: none;stroke: #010101;stroke-linecap: round;stroke-linejoin: round;stroke-width: 6px"/>
          </g>
          <g>
            <path d="M99.21,93.7c-3.29-.29-6.52-.82-9.65-1.33,1.12,0,2.22,0,3.26-.08,7.21-.43,18.4,2.6,19.89,5.42a1.48,1.48,0,0,0,1.32.8,1.46,1.46,0,0,0,.7-.18,1.48,1.48,0,0,0,.63-2c-2.43-4.64-15.49-7.44-22.72-7a79,79,0,0,1-12.48-.5c3.06-.15,6-.38,8.67-.61,9.87-.85,17-1.46,22.33,3.69a1.5,1.5,0,0,0,1,.42,1.5,1.5,0,0,0,1-2.58c-6.29-6.1-14.39-5.4-24.66-4.52a126.52,126.52,0,0,1-20.89.52,1.5,1.5,0,0,0-1.61,1.38,1.42,1.42,0,0,0,.06.46A18.69,18.69,0,0,0,62,86.35a1.54,1.54,0,0,0-1.7,1.28,1.51,1.51,0,0,0,1.29,1.69c2.41.33,5.56,1.73,9,3.8a1.5,1.5,0,0,0,1.24.75c.56.35,1.12.71,1.69,1.09a1.37,1.37,0,0,0,.62.46l.17.06c1,.71,2.11,1.47,3.19,2.27a1,1,0,0,0-.07.18,1.5,1.5,0,0,0,1.27,1.7c.54.08,1.07.18,1.61.27,1.28,1,2.56,2.07,3.83,3.16a1.48,1.48,0,0,0,.43,2.67,39.85,39.85,0,0,1,4.21,1.46c6,5.62,11.42,11.62,14.54,16.5,2.61,4.09,2.44,5.61,2.33,6a1.51,1.51,0,0,0,1,1.88,1.59,1.59,0,0,0,.43.06,1.51,1.51,0,0,0,1.44-1.06c.52-1.71-.16-4.09-1.92-7.15a1.48,1.48,0,0,0,.64-1.56c-1.19-5.45-4.64-9.49-8.48-12.43,5.68,3.6,9.67,7.48,9.67,10.06a1.5,1.5,0,0,0,3,0c0-5.48-8.84-12-17.81-16.31,8.86,3,15.36,6.91,16.12,10.38a1.49,1.49,0,0,0,1.46,1.18,1.73,1.73,0,0,0,.32,0,1.51,1.51,0,0,0,1.15-1.79c-1.14-5.23-9.5-9.91-19.5-13,7,1,14.84,3.84,16.69,7.64a1.48,1.48,0,0,0,1.34.85,1.55,1.55,0,0,0,.66-.15,1.51,1.51,0,0,0,.69-2c-2.6-5.36-12.53-8.7-20.66-9.53A74.19,74.19,0,0,1,79.44,94c2.89.27,5.87.75,9,1.26,3.4.56,6.92,1.14,10.55,1.47,7,.63,13.59,4.21,13.59,7.38a1.5,1.5,0,0,0,3,0C115.53,98.57,107.06,94.4,99.21,93.7ZM72.69,90.87l0,0,.13,0Z" style="fill: #ca3e94"/>
            <path d="M15.74,15.5a26.19,26.19,0,0,1,3.44-1.58l-.33,0A3.82,3.82,0,0,0,15.74,15.5Z" style="fill: #ca3e94"/>
            <path d="M19.76,19.66a13.93,13.93,0,0,1,3.88-.9c.54,0,1.47-.13,2.46-.26l.38-.05a15,15,0,0,0-5.23-.21c-2.82.71-7.54,3.94-8.64,5.73l.12-.14a18.07,18.07,0,0,1,6.18-3.89Z" style="fill: #ca3e94"/>
            <path d="M20,30.69l.87-.78a33.76,33.76,0,0,1,4.81-3.25l.61-.35a28.38,28.38,0,0,1,6.31-3,2.91,2.91,0,0,1-.25-.42,26.46,26.46,0,0,0-5.68.32c-1.16.15-2.16.28-2.95.3a11.9,11.9,0,0,0-2.49.66l-1,.31a14.73,14.73,0,0,0-4.07,2.57,7,7,0,0,0-1.27,3A2.36,2.36,0,0,1,15,33a2.13,2.13,0,0,1-.49.46c.63.25,1.37.47,1.95.74A38.8,38.8,0,0,1,20,30.69Z" style="fill: #ca3e94"/>
            <path d="M36,15.69c.36.09.82.17,1.34.25a2.85,2.85,0,0,1-.12-.31A7.1,7.1,0,0,0,33.11,11a6.14,6.14,0,0,1,1.58,3.18,2.33,2.33,0,0,1-.17,1.18Z" style="fill: #ca3e94"/>
            <path d="M73.19,38.25a11.56,11.56,0,0,1,2.27-2.07,4.47,4.47,0,0,0,.76-.61c.09-.23.27-.62.5-1.12.6-1.32,1.11-2.46,1.52-3.44-.53.68-1.1,1.37-1.67,2a22.7,22.7,0,0,0-2.2,2.84C74,36.47,73.62,37.32,73.19,38.25Z" style="fill: #ca3e94"/>
            <path d="M41.78,15.34a2.35,2.35,0,0,1-.53,1.14l1.31.19A5.81,5.81,0,0,1,41.78,15.34Z" style="fill: #ca3e94"/>
            <path d="M75.43,9.39c-.4.07-.75.16-1,.24a24.76,24.76,0,0,0-6.32,3.73l-.37.31a27.55,27.55,0,0,0-2.19,2A4.47,4.47,0,0,1,67,16l.25.12s0,0,0-.06a2.38,2.38,0,0,1,4.36-1.56c.18,0,.41,0,.65,0a2.34,2.34,0,0,1-.23-.75C71.8,11.5,73.4,10.2,75.43,9.39Z" style="fill: #ca3e94"/>
            <path d="M64.76,9.94l.2-.18a30.31,30.31,0,0,1,4.17-2.85,29.17,29.17,0,0,0-6.59,1.62A2.36,2.36,0,0,1,64.76,9.94Z" style="fill: #ca3e94"/>
            <path d="M53.38,13.7A28.38,28.38,0,0,0,50.86,19a8,8,0,0,1,.81.51c-.32-3.8,3.37-7.25,6.81-9.27C56.12,11.33,54.16,12.58,53.38,13.7Z" style="fill: #ca3e94"/>
            <path d="M38.44,23.23a32.79,32.79,0,0,0,5.74.08,2.36,2.36,0,0,1,1-1.33c-1.91-.44-4.09-.73-6-1-.92-.12-1.77-.24-2.54-.36a3.64,3.64,0,0,1,.26,1,2.37,2.37,0,0,1-.33,1.49Z" style="fill: #ca3e94"/>
            <path d="M40.4,43.33a2.29,2.29,0,0,1,.2-.93,1.76,1.76,0,0,1-.4-.07.31.31,0,0,1,0,.08A2.29,2.29,0,0,1,40,43.58,2,2,0,0,0,40.4,43.33Z" style="fill: #ca3e94"/>
            <path d="M66.17,35.91a15.67,15.67,0,0,0-1.64,2.44A23.71,23.71,0,0,0,63.92,43a33.1,33.1,0,0,1-.45,3.92,16.8,16.8,0,0,1-1.16,3.16,9.71,9.71,0,0,0-1.05,3.19,2.08,2.08,0,0,1,0,.25c.68-1,1.35-2,1.62-2.51a99.12,99.12,0,0,0,3.86-9.47,56.58,56.58,0,0,1,3.49-8A26.53,26.53,0,0,1,72.94,30c1.19-1.41,2.84-3.36,3.09-4.36a14.09,14.09,0,0,0-.42-3.13c-.13-.68-.26-1.31-.32-1.85a2.34,2.34,0,0,1,.48-1.73l-.63.07c-1.75.19-4,.44-5.7-.18A10.74,10.74,0,0,1,70,21.21c.42,3.06-.66,8.62-1.6,11.1A15.91,15.91,0,0,1,66.17,35.91Z" style="fill: #ca3e94"/>
            <path d="M65,56.39c-1.06,1.54-3.54,5.14-3.57,6.33a2.34,2.34,0,0,1,.06.91c1.08-4.18,4-7.18,5.8-9a14,14,0,0,0,1.13-1.21c.17-.27.4-.6.65-1a19.34,19.34,0,0,0,1.38-2.23,20.13,20.13,0,0,0,.47-4c.07-1.1.14-2.16.26-3.14a101.37,101.37,0,0,1-4.09,10A31.7,31.7,0,0,1,65,56.39Z" style="fill: #ca3e94"/>
            <path d="M54.15,21.93c.32-.08.8-.21,1.15-.33a2.39,2.39,0,0,1,1.81-1.23,2.53,2.53,0,0,1,.87.07,4,4,0,0,1,1.68-2.78,6.08,6.08,0,0,1,.56-.38,3,3,0,0,1-.09-.41,4.22,4.22,0,0,1,.49-2.42C58.3,15.9,56.27,18,56.41,19.09a2.38,2.38,0,0,1-2.09,2.64,2.17,2.17,0,0,1-.72,0c0,.12.1.23.14.35Z" style="fill: #ca3e94"/>
            <path d="M71.27,57.42l-.55.56c-.48.48-1,1-1.54,1.62A21.25,21.25,0,0,0,71.27,57.42Z" style="fill: #ca3e94"/>
            <path d="M41.12,54.56a6.57,6.57,0,0,0-.32,1,3.46,3.46,0,0,0,0,.44C40.9,55.54,41,55,41.12,54.56Z" style="fill: #ca3e94"/>
            <path d="M38.92,37.52a12.19,12.19,0,0,0-1.52,1.7,2.43,2.43,0,0,1-.28,1l.61,0a2.37,2.37,0,0,1,.76.1A4.56,4.56,0,0,1,39.44,37a3.84,3.84,0,0,0-.29.27Z" style="fill: #ca3e94"/>
            <path d="M47.49,14.65a36.83,36.83,0,0,1,2-3.68l.21-.27A22.57,22.57,0,0,0,46,13.15a2.08,2.08,0,0,0,.2.53A2.33,2.33,0,0,1,47.49,14.65Z" style="fill: #ca3e94"/>
            <path d="M49.48,24.33a2.65,2.65,0,0,1-.2-.64s-.13-.24-.63-.53a2.15,2.15,0,0,1,.15.58,3.61,3.61,0,0,1,0,1.09Z" style="fill: #ca3e94"/>
            <path d="M76.24,42.23a20.31,20.31,0,0,0-.54,4.3c-.08,1.32-.16,2.58-.34,3.68.54-1.41,1.21-3.3,1.82-5.05.81-2.3,1.59-4.51,2.21-6a13.38,13.38,0,0,1-1.12.9A5.56,5.56,0,0,0,76.24,42.23Z" style="fill: #ca3e94"/>
            <path d="M78,4.26c-.4-.09-.77-.16-1.09-.2a21.09,21.09,0,0,0-4.71.4,2.45,2.45,0,0,1-.22,1A11.23,11.23,0,0,1,73,5.08,28.3,28.3,0,0,1,78,4.26Z" style="fill: #ca3e94"/>
            <path d="M10.87,18.89a21,21,0,0,1,1.94-1.56A6.57,6.57,0,0,0,10.87,18.89Z" style="fill: #ca3e94"/>
            <path d="M101.56,35.84a12.63,12.63,0,0,0-2.16,5.1,22.77,22.77,0,0,1,1.28-2.21c.17-.23.36-.5.58-.77a31.91,31.91,0,0,0,2.54-7.26,21,21,0,0,0-.86-6.91c-.65-2-2.11-5-3-5.83a1.88,1.88,0,0,0-.35-.1,2.41,2.41,0,0,1,1,1.63,14.24,14.24,0,0,0,.87,2.07,15.57,15.57,0,0,1,1,2.42c.6,2.27.5,7.38.28,9.37A5.86,5.86,0,0,1,101.56,35.84Z" style="fill: #ca3e94"/>
            <path d="M97.45,17.52a10.58,10.58,0,0,1-2.69-.62,5.37,5.37,0,0,1-.81-.45,6.47,6.47,0,0,1,.68,1.46,9,9,0,0,0,.75,1.38c.14.23.29.47.43.72A2.36,2.36,0,0,1,97.45,17.52Z" style="fill: #ca3e94"/>
            <path d="M92.15,9.23a10,10,0,0,1,3.07,2.15,8.74,8.74,0,0,0,1.46,1.18,17,17,0,0,0,1.7.29l1,.15a14.94,14.94,0,0,0-1.69-1.4,29.3,29.3,0,0,0-6.65-2.78l0,.07C91.47,9,91.83,9.11,92.15,9.23Z" style="fill: #ca3e94"/>
            <path d="M35.8,33.92A21.62,21.62,0,0,1,38,32.13l-.89-.06A19.76,19.76,0,0,0,34.44,32a11.61,11.61,0,0,0-4.3,1.77,11.57,11.57,0,0,0-2.24,3.68,10,10,0,0,0,.21,1.37c.07.41.14.78.17,1.06a2.37,2.37,0,1,1-4.71.55c0-.19-.08-.44-.13-.71a8.48,8.48,0,0,1-.21-3.2A12.87,12.87,0,0,1,25,32.74a9.08,9.08,0,0,0-.84.65l-1,.86c-1.05.93-4.25,3.76-4.41,4.92a2.35,2.35,0,0,1-3.22,2.43,6.85,6.85,0,0,0-.5,2.88c.26,1.24,1.8,3.36,2.55,4.38a13.25,13.25,0,0,0,1.46,1.49,22.09,22.09,0,0,1,6.35-5.9,34.14,34.14,0,0,1,8-3.64,2.29,2.29,0,0,1-.74-1.45c-.23-2,1.32-3.67,2.93-5.24Z" style="fill: #ca3e94"/>
            <path d="M60.55,68.06c.93-.19,2.33-.61,3.68-1a1.45,1.45,0,0,0,1.26.44c.24,0,24.91-3.41,45.12,5.63a1.49,1.49,0,0,0,.61.13,1.5,1.5,0,0,0,.62-2.87c-9.12-4.07-18.94-5.74-27.22-6.31,8.25.08,19,1.08,27,4.3a1.59,1.59,0,0,0,.56.11,1.51,1.51,0,0,0,.56-2.9c-7.29-2.93-16.55-4.1-24.44-4.42,7-.34,16.31-.16,22.32,2.38a1.5,1.5,0,1,0,1.17-2.76c-6.3-2.66-15.55-3-22.75-2.67,5.82-.76,15.27-1.41,19,.81a1.46,1.46,0,0,0,.77.22,1.5,1.5,0,0,0,.78-2.79c-3.75-2.25-11-2.18-16.64-1.69h0c3.49-.85,9.1-1.8,11-1.05a1.5,1.5,0,0,0,1.09-2.79c-2.1-.82-6-.4-9.1.14,1.31-1.49,2.48-3.17,2.34-5.22-.42-6,1.41-8.72,2.5-10.37a4.79,4.79,0,0,0,1-2.09c.23-2,.3-7-.25-9a15.76,15.76,0,0,0-1-2.27,12.19,12.19,0,0,1-1-2.34,1.49,1.49,0,0,0-3,.35,11.77,11.77,0,0,0,1.23,3.27A14.73,14.73,0,0,1,98.68,25a33.39,33.39,0,0,1,.18,7.88,8.66,8.66,0,0,1-.52.84c-1.22,1.84-3.49,5.25-3,12.22.09,1.24-1.15,2.59-2.46,4A23.77,23.77,0,0,0,91,52.26a1.51,1.51,0,0,0-.34.52,6.84,6.84,0,0,0-.47.72,1.47,1.47,0,0,0,.09,1.41l-2.15.28a29.75,29.75,0,0,1,3.4-7.26,15.54,15.54,0,0,0,1.72-3.31c.19-.62.51-1.42.86-2.26.79-1.92,1.68-4.1,1.66-5.87A30.53,30.53,0,0,0,95,29.93,31.36,31.36,0,0,0,92.51,25L92,24.05c-.17-.3-.37-.68-.59-1.1a24.32,24.32,0,0,0-2.92-4.75,11.32,11.32,0,0,0-3.43-2.05c-.94-.43-2.89-1.34-3.1-1.86a1.49,1.49,0,0,0-3,.37,2,2,0,0,0,.07.35,17.61,17.61,0,0,0-4.35.13,15.37,15.37,0,0,1-3.67.15,1.47,1.47,0,0,0-1.58-1,1.49,1.49,0,0,0-1.31,1.65c.34,2.88,4,2.49,6.89,2.17A12.46,12.46,0,0,1,78.8,18a14.18,14.18,0,0,1,5,4.58c.87,1.71,1.14,6.26.94,8.51-.08.94-1.59,3.29-2.49,4.7-.57.89-1.07,1.66-1.38,2.26-.62,1.23-1.68,4.23-2.8,7.4-1,2.91-2.08,5.92-2.61,7A23.85,23.85,0,0,1,68.93,61a1.49,1.49,0,0,0-.21,2.09,1.47,1.47,0,0,0,1.33.53,1.42,1.42,0,0,0,.76-.32c.28-.23.49-.47.75-.7a1.5,1.5,0,0,0-.14,1,1.43,1.43,0,0,0,.13.28l-.14.12c-1,0-1.92.12-2.71.18a2.15,2.15,0,0,1-.67-.49,2.36,2.36,0,0,1-.48-2,10.78,10.78,0,0,0-1.24,2.66l-1,.12c.85-3.11,3.15-5.51,4.73-7.12a13.35,13.35,0,0,0,1.64-1.85c.15-.24.36-.54.58-.87a20.5,20.5,0,0,0,1.76-2.91,19,19,0,0,0,.76-5.24,17.87,17.87,0,0,1,.62-4.64,6.42,6.42,0,0,1,2.3-2.54,5.33,5.33,0,0,0,2-2.18l.48-1.06c2.54-5.56,3.35-7.86,3.2-9.13a1.51,1.51,0,0,0-1.65-1.32,1.48,1.48,0,0,0-1.31,1.63c0,.74-1,3.29-2.94,7.58L77,35.94c-.12.29-.45.54-1,1a9.28,9.28,0,0,0-3.21,3.63c-.65,1.31-.78,3.47-.93,5.76a19.24,19.24,0,0,1-.53,4.29A20,20,0,0,1,69.84,53l-.63.95A14.27,14.27,0,0,1,68,55.27c-1.9,1.92-4.76,4.83-5.68,9A1.49,1.49,0,0,0,63.42,66a1.64,1.64,0,0,0,.38,0,.76.76,0,0,0,0,.15,1.39,1.39,0,0,0,.34.71.45.45,0,0,1-.11,0,2.37,2.37,0,0,1-2.6-2.82,2.35,2.35,0,0,1-1.53,1.48,2.16,2.16,0,0,1-.44.1,2.38,2.38,0,0,1-2.54-1.64c-.72-2.26.62-4.94,2.83-8.32a2.08,2.08,0,0,1-.57.15,2.37,2.37,0,0,1-2.63-2.08c-.23-1.93.65-3.92,1.42-5.67a13.57,13.57,0,0,0,.86-2.24,31.1,31.1,0,0,0,.36-3.28,24.37,24.37,0,0,1,.89-5.9,15.89,15.89,0,0,1,2.3-3.66A15.1,15.1,0,0,0,64,30.64a25.35,25.35,0,0,0,1.35-8.79A8,8,0,0,0,65,20.47a6.5,6.5,0,0,0-2.31.87,2.38,2.38,0,0,1-2.05,1.84,2.3,2.3,0,0,1-.87-.06c-.18,2.29-2.88,3-4.39,3.41a9.66,9.66,0,0,0-1.09.32c-1,.56-2.72,1.83-4.13,2.85-.67.48-1.28.92-1.76,1.25l-.4.27c.48-.26.91-.5,1.21-.7a21.1,21.1,0,0,1,4.38-1.93c1.48-.54,4.54-1.66,5.09-2.44a2.38,2.38,0,0,1,4.72.54c-.32,3.5-4.5,5-8.19,6.36a20.24,20.24,0,0,0-3.35,1.41,31.94,31.94,0,0,1-2.93,1.64c-1.57.83-5.22,2.73-5.69,3.8A2.33,2.33,0,0,1,43,41,2.32,2.32,0,0,1,44.75,42c.56-.48,1-.88,1.37-1.13s.75-.57,1.23-.91c.86-.61,3.09-2.2,3.5-3a2.37,2.37,0,0,1,4.55-1,2.09,2.09,0,0,1,.56-.14A2.39,2.39,0,0,1,58.6,38c.2,1.71-.63,3.6-1.44,5.43a15.86,15.86,0,0,0-.73,1.84A23.81,23.81,0,0,0,56.07,52c.13.85.29,1.58.46,2.36A26.8,26.8,0,0,1,57.16,58a11,11,0,0,1-.35,3.25,9.81,9.81,0,0,0-.31,2.07,2.37,2.37,0,0,1-1.6,3.81,2.28,2.28,0,0,1-1.54-.42s0-.06,0-.1A1.5,1.5,0,0,0,52.09,65H52a8.94,8.94,0,0,1,.15-4.65,8.86,8.86,0,0,0,.27-1.82,22.3,22.3,0,0,0-.54-3.07c-.18-.82-.37-1.67-.52-2.67a22.14,22.14,0,0,1-.12-4c-.46.47-.93.94-1.4,1.38a18.08,18.08,0,0,0-3.78,4.51,12.4,12.4,0,0,0-.71,3.73c.46,1.58.93,2.48,1.39,2.68A2.37,2.37,0,0,1,48,64.1a2.28,2.28,0,0,1-.36.46l-1.19-.08a1.44,1.44,0,0,0-.07-2.66c-.77-.32-1.35-1.32-1.92-3.32a12.14,12.14,0,0,1,.79-4.33,18.77,18.77,0,0,1,3.95-4.73c.72-.68,1.39-1.33,2-2a1.48,1.48,0,0,0-2.22-2c-.54.61-1.17,1.21-1.84,1.85a21.11,21.11,0,0,0-4.53,5.51c-.62,1.17-1.47,4.92-1,6.51a13.44,13.44,0,0,0,1.1,2.77l-1.1-.16-.06-.11s0,.06,0,.1l-.89-.12a1.5,1.5,0,0,0,0-.22c0-.28-.11-.79-.21-1.42a38.74,38.74,0,0,1-.56-4.64A21.74,21.74,0,0,1,43,49.16a37.3,37.3,0,0,1,5.5-5.22c.28-.23.66-.5,1.08-.8,2.4-1.72,5.4-3.86,5.1-6.36a1.48,1.48,0,0,0-3,.33c0,.86-2.93,2.93-3.88,3.62-.46.33-.88.63-1.2.88-.64.51-1.51,1.24-2.4,2a4.1,4.1,0,0,0,0-.49,1.49,1.49,0,1,0-3,.35c.1.86-3.35,1.7-5.2,2.15-1.09.26-2.21.54-3.23.87a30.42,30.42,0,0,0-5.62,3,17.62,17.62,0,0,0-4,4.4l-1.48-.19a1,1,0,0,0,.08-.34c.07-1.14,3.5-4.52,5.47-5.63,3.6-2,6.44-3.61,10.63-3.8a1.49,1.49,0,1,0-.13-3c-4.9.22-8.16,2.06-12,4.18-1.37.77-6.79,4.89-7,8.05a1.19,1.19,0,0,0,0,.32c-3.07-.08-6.32.3-8.59,1.81a1.5,1.5,0,0,0,.83,2.75A1.47,1.47,0,0,0,12,57.9c2.39-1.59,6.73-1.5,10.27-1a1.61,1.61,0,0,0,.08.38c-5.59-.12-13.37.47-16.77,4.31a1.49,1.49,0,0,0,.13,2.11,1.45,1.45,0,0,0,1,.38,1.47,1.47,0,0,0,1.12-.51c3.57-4,15.84-3.46,20.26-2.9a.86.86,0,0,0,.23,0l.06,0,.47.31C18.92,60.82,7,62.34,3.17,69.67a1.5,1.5,0,0,0,.63,2,1.46,1.46,0,0,0,.7.18,1.5,1.5,0,0,0,1.33-.8c3.74-7.1,18.6-7.64,29.22-6.84C23.71,64.5,9.94,66.5,4.44,74A1.5,1.5,0,1,0,6.86,75.8c5.81-7.94,23.29-8.85,34.65-8.53-11.45.66-27.38,3.4-36.92,12.91a1.51,1.51,0,0,0,1.06,2.57,1.51,1.51,0,0,0,1.06-.44c13.11-13.09,40.7-12.38,46.1-12.1a1.5,1.5,0,0,0,1.5-1.16A45.74,45.74,0,0,0,60.55,68.06Zm17.51-14.3c.61-1.22,1.66-4.18,2.76-7.32,1-2.8,2.11-6,2.65-7,.24-.47.72-1.22,1.23-2,1.64-2.56,2.81-4.49,3-6,.2-2.27,0-7.57-1.25-10.12a9.42,9.42,0,0,0-1.19-1.72,5.36,5.36,0,0,1,1.11.71,24.22,24.22,0,0,1,2.45,4.1l.61,1.15.54,1a30.16,30.16,0,0,1,2.2,4.35,29.19,29.19,0,0,1,.65,5.74,15.68,15.68,0,0,1-1.43,4.7c-.38.91-.73,1.77-1,2.52A14.37,14.37,0,0,1,89,46.38a30.62,30.62,0,0,0-4.15,9.45,1.49,1.49,0,0,0,0,2.51c-1.3.1-2.46.2-3.42.3A12.5,12.5,0,0,0,83.16,54c0-.09,0-.17,0-.23a47.39,47.39,0,0,1,2.35-6.52,25.82,25.82,0,0,1,2.15-2.71A22.24,22.24,0,0,0,90,41.66a19,19,0,0,0,1.28-7.4,1.48,1.48,0,0,0-3,.34,17.64,17.64,0,0,1-.92,5.61,25.7,25.7,0,0,1-1.94,2.43A20.33,20.33,0,0,0,82.91,46a49.52,49.52,0,0,0-2.6,7.17c0,.08,0,.2-.06.33-.23,1.11-.82,4.07-3.51,5.48a1.49,1.49,0,0,0-.62,2,1.2,1.2,0,0,0,.36.35l-1.12.1,0,0a2.28,2.28,0,0,1-.26-1.07c-.35.43-.75.85-1.14,1.27-.52.07-1,.14-1.35.22a1.6,1.6,0,0,0-.23.1A28.39,28.39,0,0,0,78.06,53.76ZM44.62,64.37a1.34,1.34,0,0,0,.07-.18c.11.06.2.14.32.2Zm-8.31-3.05a1.46,1.46,0,0,0-1.06-1.56,9.72,9.72,0,0,1-3.53-3.06,6.79,6.79,0,0,1,1.17-2.1,13.08,13.08,0,0,1,2.72-1,13,13,0,0,0,2-.7A11.4,11.4,0,0,0,37,55a24.45,24.45,0,0,0,.55,5.58c.06.33.1.61.13.85Zm-7.45-9.25a28.28,28.28,0,0,1,4.91-2.72c.92-.29,2-.55,3-.8a35.7,35.7,0,0,0,3.76-1.07,24.82,24.82,0,0,0-1.4,2.25,1.48,1.48,0,0,0-2.72.46,12.9,12.9,0,0,1-1.66.55,14.78,14.78,0,0,0-3.45,1.33,7.51,7.51,0,0,0-2.59,4.79,2.68,2.68,0,0,0,.29,1,1.55,1.55,0,0,0-.6-.22l-.42,0,0-.11a1.46,1.46,0,0,0,.62-.83,1.47,1.47,0,0,0-.42-1.44,10.1,10.1,0,0,1,1.29-2.48.57.57,0,0,0-.13.08,10.81,10.81,0,0,0-2,2l-1-.22A12.3,12.3,0,0,1,28.86,52.07Zm.56,8a1.44,1.44,0,0,0,.31-.7,1.2,1.2,0,0,0,0-.38A12.86,12.86,0,0,0,31.79,61L30.34,61A10.18,10.18,0,0,1,29.42,60Z" style="fill: #ca3e94"/>
            <path d="M36.1,54.87c0-.17.07-.34.11-.53l-.35.11a13.77,13.77,0,0,0-2.4.86,6.36,6.36,0,0,0-.75,1.28,10.28,10.28,0,0,0,2.81,2.32,2.31,2.31,0,0,1,.93.49A17,17,0,0,1,36.1,54.87Z" style="fill: #ca3e94"/>
            <path d="M79.37,53.28c0-.15.06-.27.08-.36s0-.19.07-.3c-.25.64-.48,1.17-.67,1.55-.67,1.32-1.33,2.53-2.06,3.68A6.79,6.79,0,0,0,79.37,53.28Z" style="fill: #ca3e94"/>
            <path d="M49.81,44.09a2.37,2.37,0,0,1,1.89.55c0-.21.08-.41.13-.59a15,15,0,0,1,.76-2c-.8.67-1.67,1.29-2.47,1.87Z" style="fill: #ca3e94"/>
            <path d="M83.94,12.67a12.23,12.23,0,0,0-1.88.06,2.36,2.36,0,0,1,.72,1.18,6.07,6.07,0,0,0,1.08.68,2.41,2.41,0,0,1,0-1.81Z" style="fill: #ca3e94"/>
            <path d="M80.78,25a2.45,2.45,0,0,1,.9-.3,2.38,2.38,0,0,1,1.89.64A8.94,8.94,0,0,0,83,23a13,13,0,0,0-3-3.19,1.46,1.46,0,0,1,.07.3c0,.34.15.88.26,1.46A21.92,21.92,0,0,1,80.78,25Z" style="fill: #ca3e94"/>
            <path d="M88.29,32.59a2.45,2.45,0,0,1,1.22-.52,2.38,2.38,0,0,1,2.1.84,12.46,12.46,0,0,0-.35-1.86,30.88,30.88,0,0,0-2.11-4.17c-.21-.36-.39-.69-.55-1l-.21-.4a31.68,31.68,0,0,1,.14,5.93A5.62,5.62,0,0,1,88.29,32.59Z" style="fill: #ca3e94"/>
            <path d="M96.56,34.88c.38-.67.74-1.22,1-1.67.14-.21.3-.45.39-.61s0-.49.05-.77a2.37,2.37,0,0,1-.7.21,2.25,2.25,0,0,1-1.07-.13C96.41,32.92,96.51,34,96.56,34.88Z" style="fill: #ca3e94"/>
            <path d="M92.26,48.39c-.47.78-1,1.64-1.5,2.59.47-.58,1-1.12,1.47-1.66,1.07-1.16,2.29-2.48,2.23-3.34,0-.71-.07-1.37-.07-2-.13.34-.24.65-.32.91A16.13,16.13,0,0,1,92.26,48.39Z" style="fill: #ca3e94"/>
            <path d="M78.15,14a2.12,2.12,0,0,1,.2-.6,7.26,7.26,0,0,0-1.62.56s0,0,0,.07Q77.46,14,78.15,14Z" style="fill: #ca3e94"/>
            <path d="M86.36,47.68A47.71,47.71,0,0,0,84.07,54s0,.12,0,.21a16.73,16.73,0,0,1-.47,1.87l.35-.23c0-.05,0-.09,0-.14a31.08,31.08,0,0,1,4.28-9.79c.4-.66.78-1.29,1-1.8l-.86,1A28.49,28.49,0,0,0,86.36,47.68Z" style="fill: #ca3e94"/>
            <path d="M84.77,42.06a28.73,28.73,0,0,0,1.84-2.28,17.64,17.64,0,0,0,.81-5.07.48.48,0,0,0,0-.12c-.52,1-1.19,2.06-2,3.28-.5.77-1,1.5-1.19,1.93-.45.9-1.37,3.48-2.26,6a2.56,2.56,0,0,0,.11-.24A21.53,21.53,0,0,1,84.77,42.06Z" style="fill: #ca3e94"/>
            <path d="M83.8,31c0-.42.06-.9.06-1.4a51.4,51.4,0,0,1-2.08,5.17A17,17,0,0,0,83.8,31Z" style="fill: #ca3e94"/>
            <path d="M54.22,20.84a1.48,1.48,0,0,0,1.3-1.64c-.27-2.31,4.5-5.93,7.53-6.89a1.48,1.48,0,0,0-.9-2.83c-3.62,1.15-10.1,5.62-9.58,10.06A1.48,1.48,0,0,0,54.22,20.84Z" style="fill: #ca3e94"/>
            <path d="M45.29,17.4a1.63,1.63,0,0,0,.38,0,1.49,1.49,0,0,0,.09-2.94,2.16,2.16,0,0,1-.61-1.67,20,20,0,0,1,5.47-3.51,1.49,1.49,0,1,0-.94-2.82,22,22,0,0,0-6.84,4.45,4,4,0,0,0-.32,3.89A3.74,3.74,0,0,0,45.29,17.4Z" style="fill: #ca3e94"/>
            <path d="M31.75,9.83c1.51-.13,5,1.41,6.28,5.54a1.48,1.48,0,0,0,1.59,1l.26-.05a1.49,1.49,0,0,0,1-1.86c-1.71-5.6-6.6-7.87-9.37-7.63a1.48,1.48,0,0,0-1.36,1.6A1.5,1.5,0,0,0,31.75,9.83Z" style="fill: #ca3e94"/>
            <path d="M10.19,26.34a1.49,1.49,0,0,0,1.3-1.65c-.24-2,5.89-6.39,9.55-7.31,2.77-.7,8.79.78,12.39,1.67l1.65.4c1.08.25,2.53.44,4.21.66,3.46.46,10.64,1.4,10.88,3.47a1.51,1.51,0,0,0,.54,1c-.91.62-1.9,1.34-2.83,2-.65.47-1.24.9-1.7,1.22s-1,.69-1.68,1.1a1.77,1.77,0,0,0,0-.46,1.49,1.49,0,0,0-.89-1.19A5.31,5.31,0,0,0,47.22,26a2.62,2.62,0,0,0,.7-2.15A1.49,1.49,0,0,0,45,24c-1,.5-4.73.24-6.58.11a25.63,25.63,0,0,0-5-.07c-1.76.28-4.24,1.65-6.64,3l-.61.35a34.55,34.55,0,0,0-4.64,3.13l-.89.79c-3.18,2.82-6,5.56-5.7,8.22a1.49,1.49,0,0,0,3-.35c-.16-1.33,3.38-4.46,4.71-5.64.36-.31.68-.6.94-.84A29.84,29.84,0,0,1,27.62,30l.63-.36c1.48-.86,4.25-2.45,5.61-2.67a26.45,26.45,0,0,1,4.32.1c1.57.11,3,.19,4.17.19a1.47,1.47,0,0,0-.77,1,20.12,20.12,0,0,1-4.24,0,20.32,20.32,0,0,0-3.43-.06A14.75,14.75,0,0,0,27.46,31,14.55,14.55,0,0,0,24.1,36.7a8,8,0,0,0,.21,2.84c.06.3.12.57.14.78A1.49,1.49,0,0,0,27.4,40c0-.26-.1-.61-.17-1A8,8,0,0,1,27,37.31a12.12,12.12,0,0,1,2.51-4.19,12.31,12.31,0,0,1,4.8-2,21,21,0,0,1,2.82.08c1.4.1,2.58.16,3.58.13a30.51,30.51,0,0,0-4.29,3.24l-.2.21c-1.46,1.42-2.86,2.93-2.68,4.49a1.49,1.49,0,0,0,3-.24,7.87,7.87,0,0,1,1.79-2.13l.22-.22a48.37,48.37,0,0,1,6.53-4.61c1.07-.67,2.07-1.31,2.82-1.83L49.62,29c1.42-1,3.2-2.31,4.25-2.91a8.66,8.66,0,0,1,1.26-.4c1.58-.41,4-1.05,3.73-3.1a1.48,1.48,0,0,0-1.65-1.3,1.46,1.46,0,0,0-1.24,1,12.47,12.47,0,0,1-1.6.49c-.46.13-.88.24-1.26.38-.23-1.73-1.51-2.91-3.32-3.76a27.29,27.29,0,0,1,2.86-6.22C55.06,9.75,65.42,6.07,69.83,6a1.49,1.49,0,1,0-.07-3c-5.2.12-16.5,4.14-19.55,8.49a30.17,30.17,0,0,0-3.21,7,59.22,59.22,0,0,0-7.32-1.27c-1.54-.2-3-.39-3.93-.61l-1.61-.39-1.33-.33a1.49,1.49,0,0,0,1-1.58c-.4-3.41-6.41-6.62-6.47-6.66l-.6-.31c-2.11-1.13-5.29-2.83-10-.8a1.49,1.49,0,0,0,1.18,2.73c3.4-1.47,5.45-.37,7.43.69l.65.34c2,1,4.75,3.34,4.87,4.36a1.47,1.47,0,0,0,.43.87c-.72-.16-1.47-.33-2.22-.48v-.18c-.43-3.65-7.67-4.58-9.88-4.78-1.46-.13-4.29.16-6.89,3.57a1.48,1.48,0,1,0,2.36,1.8c1.65-2.16,3.23-2.5,4.27-2.41a21.22,21.22,0,0,1,6,1.36,14,14,0,0,0-4.6.14C17.07,15.32,8,20.21,8.54,25A1.49,1.49,0,0,0,10.19,26.34Z" style="fill: #ca3e94"/>
            <path d="M12.19,32.71a1.46,1.46,0,0,0,1.07.3,1.51,1.51,0,0,0,1-.57,1.48,1.48,0,0,0-.19-2,6.79,6.79,0,0,1,1.49-4A14.53,14.53,0,0,1,20,23.63l.95-.31a11.56,11.56,0,0,1,2.75-.7c.74,0,1.72-.15,2.86-.29,1.69-.22,5.6-.71,6.49-.15a1.5,1.5,0,0,0,1.63,1.19A1.48,1.48,0,0,0,36,21.72a2.63,2.63,0,0,0-1-1.83c-1.64-1.29-4.8-1-8.76-.51-1,.13-2,.25-2.55.27a13.21,13.21,0,0,0-3.62.86l-.87.28a17.19,17.19,0,0,0-5.78,3.64,9.84,9.84,0,0,0-2.28,6.14A2.87,2.87,0,0,0,12.19,32.71Z" style="fill: #ca3e94"/>
            <path d="M42.33,39.87c-.15-1.25,4.28-3.57,6.17-4.56a32.06,32.06,0,0,0,2.84-1.59,20.62,20.62,0,0,1,3.55-1.51c3.61-1.31,7.34-2.67,7.6-5.59A1.5,1.5,0,0,0,61.14,25a1.48,1.48,0,0,0-1.61,1.35c-.09,1-3.85,2.42-5.66,3.07a21.27,21.27,0,0,0-4.19,1.84c-.58.39-1.54.89-2.56,1.42-3.81,2-8.13,4.26-7.74,7.54a1.49,1.49,0,0,0,2.95-.35Z" style="fill: #ca3e94"/>
            <path d="M56.35,43.05c.75-1.73,1.53-3.51,1.36-5a1.49,1.49,0,1,0-3,.35,10.86,10.86,0,0,1-1.13,3.43,17.63,17.63,0,0,0-.94,2.42,27.17,27.17,0,0,0-.44,8.33c.15,1,.33,1.81.51,2.62a24.55,24.55,0,0,1,.56,3.17A8.88,8.88,0,0,1,53,60.48c-.39,1.84-.83,3.93.52,5.34a1.49,1.49,0,0,0,1.25.45,1.56,1.56,0,0,0,.85-.4,1.49,1.49,0,0,0,.05-2.1c-.27-.28.08-2,.23-2.68a10.14,10.14,0,0,0,.35-3,27.26,27.26,0,0,0-.62-3.53c-.17-.77-.34-1.55-.47-2.42A24.51,24.51,0,0,1,55.57,45,15.09,15.09,0,0,1,56.35,43.05Z" style="fill: #ca3e94"/>
            <path d="M73.62,30.56A24.78,24.78,0,0,0,71,34a55.35,55.35,0,0,0-3.42,7.8,99.33,99.33,0,0,1-3.92,9.6,30.59,30.59,0,0,1-1.81,2.81C59,58.36,57,61.48,57.76,63.79a1.47,1.47,0,0,0,1.59,1,1.31,1.31,0,0,0,.27-.06,1.47,1.47,0,0,0,1-1.86c-.35-1.1,2.5-5.24,3.72-7a31.09,31.09,0,0,0,2-3.17,102.75,102.75,0,0,0,4.09-10,53.21,53.21,0,0,1,3.17-7.25,23.6,23.6,0,0,1,2.3-3c1.67-2,3.41-4,3.88-5.9a12.35,12.35,0,0,0-.37-4.85c-.12-.6-.23-1.16-.28-1.54a1.48,1.48,0,0,0-3,.34c.06.51.19,1.13.32,1.78a12.2,12.2,0,0,1,.4,3.54C76.59,27,74.94,29,73.62,30.56Z" style="fill: #ca3e94"/>
            <path d="M98.54,29.51a17.72,17.72,0,0,0-1.39-3.71A28.61,28.61,0,0,1,96,23a8.29,8.29,0,0,0-1.37-3.2,8.37,8.37,0,0,1-.83-1.57c-.74-2.27-2.94-4.08-7.15-5.84a1.48,1.48,0,1,0-1.15,2.73c3.25,1.37,5,2.68,5.47,4a10.94,10.94,0,0,0,1.12,2.21,6.58,6.58,0,0,1,1,2A17.72,17.72,0,0,0,94.43,27a25.51,25.51,0,0,1,1.16,2.86,1.48,1.48,0,0,0,1.64,1.3A1.5,1.5,0,0,0,98.54,29.51Z" style="fill: #ca3e94"/>
            <path d="M65.54,10.44l-.35.29c-2.24,1.92-4.42,4-4.18,6a1.48,1.48,0,0,0,.41.86,8.08,8.08,0,0,0-1.21.74A2.86,2.86,0,0,0,58.87,21a1.49,1.49,0,0,0,3-.11,6.39,6.39,0,0,1,3.71-1.33,6.7,6.7,0,0,1,.67,2.18A26.15,26.15,0,0,1,64.82,31a15,15,0,0,1-1.74,2.64A15.35,15.35,0,0,0,60.91,37a24.12,24.12,0,0,0-.84,5.67,30.28,30.28,0,0,1-.38,3.4,14.18,14.18,0,0,1-.91,2.41C58,50.23,57.23,52,57.42,53.7a1.48,1.48,0,1,0,2.95-.34,9.35,9.35,0,0,1,1.12-3.66,16.43,16.43,0,0,0,1.11-3A33,33,0,0,0,63,42.91a22.62,22.62,0,0,1,.67-4.86,14.32,14.32,0,0,1,1.76-2.68A15.38,15.38,0,0,0,67.6,32c.88-2.34,2-7.79,1.55-10.67-.12-.89-.66-3.85-2.43-4.53A5.15,5.15,0,0,0,64,16.75a1,1,0,0,0,0-.3c0-.38.61-1.28,3.16-3.45l.36-.32a25.69,25.69,0,0,1,6.66-3.9A29.28,29.28,0,0,1,80.92,8a18,18,0,0,1,4.88.91,19.8,19.8,0,0,0-4.61,0L81,9c-3.15.5-8.42,1.34-8,4.63a1.48,1.48,0,0,0,3-.14c.31-.29,1.42-.9,5.54-1.56l.22,0a24.68,24.68,0,0,1,9.15,1,7.65,7.65,0,0,1,1.82,1.4,10.14,10.14,0,0,0,2.49,1.84,11.29,11.29,0,0,0,2.72.58,11.9,11.9,0,0,1,2.54.52c1.14.91,2.76,4.3,3.41,6.33a22,22,0,0,1,.89,7.32,35.1,35.1,0,0,1-5.36,12.24,1.48,1.48,0,0,0,1.36,2.36,1.5,1.5,0,0,0,1-.59,38,38,0,0,0,5.91-13.53,24.15,24.15,0,0,0-1-8.71c-.48-1.48-2.31-6.08-4.39-7.74-.88-.71-2.38-.92-4-1.14a12.18,12.18,0,0,1-1.94-.36,9.18,9.18,0,0,1-1.7-1.32,9.46,9.46,0,0,0-2.78-2,16,16,0,0,0-1.57-.46,1.62,1.62,0,0,0,0-.22C89.8,5.36,81.11,5,81,5a31.61,31.61,0,0,0-7.74.92A28,28,0,0,0,65.54,10.44Z" style="fill: #ca3e94"/>
          </g>
        </g>
        <path d="M108.34,71c-12.52-3.07-53.95-10.58-99,8.64-1.2.52-2.42,1-3.66,1.61,0,0,0,5.83.26,13.76.52,12.46,6,40,6,40h0a27.2,27.2,0,0,0,3.75,5.43c-3.89,4.12-5.35,10.77-3.54,17.34a18.52,18.52,0,0,0,8.56,11.44A13.17,13.17,0,0,0,27,170.85a11.91,11.91,0,0,0,3.45-.51,12.79,12.79,0,0,0,6.83-5.13,67.34,67.34,0,0,0,5.13,4.52,42,42,0,0,0,7.87,5,22.53,22.53,0,0,0,4.55,1.61,13.78,13.78,0,0,0,2.46.36,8.52,8.52,0,0,0,1.24.05c.4,0,.82,0,1.22,0a21.45,21.45,0,0,0,4.74-.88c.77-.2,1.5-.5,2.24-.76s1.45-.6,2.14-1A38,38,0,0,0,76.58,169a55.59,55.59,0,0,0,6.55-6.56,12.92,12.92,0,0,0,7.22,5.72,11.93,11.93,0,0,0,3.46.51,13.06,13.06,0,0,0,6.33-1.69,18.51,18.51,0,0,0,8.56-11.43c2-7.46-.23-15-5.18-18.81a25.58,25.58,0,0,0,2.62-4.76h0a36.3,36.3,0,0,1-1.71-5.53v0a27.57,27.57,0,0,1-3.28-4.29l.06-.29.22,0v0s-.22-.09-.23-.13l-1.86-3c-.31-.5-.63-1-1-1.5l-1-1.38-1.06-1.39a15.94,15.94,0,0,0-1.1-1.36l-2.32-2.6-.59-.65-.62-.61-1.25-1.22c-.84-.82-1.67-1.64-2.56-2.39l-2.65-2.29-2.76-2.15a106.77,106.77,0,0,0-11.73-7.65c-2-1.14-4.1-2.24-6.21-3.26-1-.51-2.09-1-3.16-1.45,12.79-3.62,28.72-5.09,48.51-2.61.79.08,1.6.19,3.62.3V72A25.77,25.77,0,0,1,108.34,71Zm-79,95.76a8.81,8.81,0,0,1-6.91-.87,14.82,14.82,0,0,1-6.76-9.15c-1.48-5.39-.23-11,3-14.09a14.31,14.31,0,0,0,2.68,1.09,93.89,93.89,0,0,0,8.3,12.85q2.35,3,5,5.88A10,10,0,0,1,29.37,166.76ZM29,122.15a10.1,10.1,0,0,0-3.76,1l-.71.38a110.57,110.57,0,0,1,29.07-29c1.14-.49,2.28-1,3.43-1.4.68.24,1.39.5,2.07.76l1.56.61,1.54.65c2.07.84,4.11,1.77,6.13,2.73q2.22,1.08,4.39,2.24A109.57,109.57,0,0,1,98.89,128c-.23.77-.46,1.53-.7,2.29-.9,2.82-1.9,5.61-3,8.32a86.37,86.37,0,0,1-8.41,15.52,58.61,58.61,0,0,1-11.85,12.78,35.81,35.81,0,0,1-7.3,4.48c-.64.31-1.3.54-2,.81s-1.33.46-2,.61a17.15,17.15,0,0,1-4.05.63,8.34,8.34,0,0,1-1,0,6.59,6.59,0,0,1-1-.07,10.76,10.76,0,0,1-2-.34,18.9,18.9,0,0,1-3.8-1.48,37.49,37.49,0,0,1-7-4.76A71.69,71.69,0,0,1,33.12,154a89,89,0,0,1-8.76-15,80.54,80.54,0,0,1-3.62-9.59l.39-.64a33,33,0,0,0,5.77-.55c2.09-.28,3.93-1.33,5.94-1.68a2.74,2.74,0,0,0-.21.42,4.26,4.26,0,0,0,2,5.64,4.14,4.14,0,0,0,5.46-2.27,4.38,4.38,0,0,0,.33-2.43,9.84,9.84,0,0,1,3.27,3.84l.52-.12a10.21,10.21,0,0,0-3.66-6.69A13.75,13.75,0,0,0,33,122.2c-.7,0-1.4-.09-2.1-.1m74.19,32.44a14.77,14.77,0,0,1-6.75,9.15,8.85,8.85,0,0,1-6.91.87,10.76,10.76,0,0,1-5.84-5.25c1-1.32,1.94-2.69,2.83-4.08A85,85,0,0,0,95.7,140.9a6.43,6.43,0,0,0,5.22-1.44C104.93,142.23,106.79,148.38,105.09,154.54Z" style="fill: #ca3e94"/>
        <path d="M72,154.67c-.83-.13-1.62-.18-2.38-.27l-.08,0c-1-.83-2-1.65-3.08-2.47l-2.38-1.74a7.64,7.64,0,0,0-.79-.55,9.76,9.76,0,0,0-1.69-.81,4.13,4.13,0,0,0-2.1-.39,7.43,7.43,0,0,1-1.31.27c-.72,0-.94-.27-1.61-.4a4.4,4.4,0,0,0-2.25.28A9,9,0,0,0,52,149.8a39,39,0,0,0-3.62,2.63,6.4,6.4,0,0,1-4.76.94l-.09.24c.95.3,1.91.58,2.88.83h0l0,0A9.31,9.31,0,0,0,49.7,162a13.77,13.77,0,0,0,8,3.54A11.51,11.51,0,0,0,66.29,163a10.31,10.31,0,0,0,3.48-7.52l0,0v0Z" style="fill: #ca3e94"/>
        <path d="M52.32,140.68h0a16.4,16.4,0,0,0,7.19,1.53,22.72,22.72,0,0,0,2.43-.13H62a20.42,20.42,0,0,0,3.61-.72l2.14-.71-1.46-2.21a8.75,8.75,0,0,0-7.44-4.19l-.55,0a17.65,17.65,0,0,0,.38-3.06,14.78,14.78,0,0,0-.35-3.72c-.28-1.14-.8-2.43-1.68-2.71a3.87,3.87,0,0,1,.7,2.89,11.44,11.44,0,0,1-.62,3,10.62,10.62,0,0,1-1.2,2.46c-.42.6-2,2.54-3.08,3.73a9.11,9.11,0,0,0-.73.79l-1.63,2,2.06,1A.89.89,0,0,0,52.32,140.68Z" style="fill: #ca3e94"/>
        <path d="M85.69,131.6a9.17,9.17,0,0,1-2.91,1.78,10.31,10.31,0,0,1-7,.1,7,7,0,0,0,7.65,1.58,7.21,7.21,0,0,0,4.64-6.32A15.09,15.09,0,0,1,85.69,131.6Z" style="fill: #9f3585"/>
        <path d="M84.15,121.29c-.59.07-1.18.17-1.75.28a11.46,11.46,0,0,0-9.54,10.48l.53.12a12.55,12.55,0,0,1,3-4,4.41,4.41,0,0,0,.5,2.28,4.09,4.09,0,0,0,5.6,1.83,4.35,4.35,0,0,0,1.63-5.82,3.46,3.46,0,0,0-.32-.52c1.57.26,3.08,1,4.77,1.11a30.11,30.11,0,0,0,6.87.25l.25-.48a11.89,11.89,0,0,0-5.62-4.92,7.59,7.59,0,0,0-2.15-.62" style="fill: #ca3e94"/>
        <path d="M33.89,133.6a9.51,9.51,0,0,1-2.8-1.94,15.32,15.32,0,0,1-2.2-3,7.2,7.2,0,0,0,4.27,6.56,7,7,0,0,0,7.72-1.14A10.35,10.35,0,0,1,33.89,133.6Z" style="fill: #9f3585"/>
        <circle cx="76.04" cy="138.6" r="1.56" style="fill: #03a550"/>
        <path d="M79.94,137.82a1.56,1.56,0,1,0,1.55,1.56A1.56,1.56,0,0,0,79.94,137.82Z" style="fill: #ca3e94"/>
        <path d="M84.61,137.82a1.56,1.56,0,1,0,1.56,1.56A1.56,1.56,0,0,0,84.61,137.82Z" style="fill: #fdcd0d"/>
        <circle cx="89.29" cy="137.82" r="1.56" style="fill: #03a550"/>
        <circle cx="92.41" cy="134.7" r="1.56" style="fill: #eb2227"/>
        <path d="M42.29,137a1.56,1.56,0,1,0,1.56,1.56A1.56,1.56,0,0,0,42.29,137Z" style="fill: #fdcd0d"/>
        <path d="M38.4,137.82A1.56,1.56,0,1,0,40,139.38,1.56,1.56,0,0,0,38.4,137.82Z" style="fill: #eb2227"/>
        <path d="M33.72,137.82a1.56,1.56,0,1,0,1.56,1.56A1.56,1.56,0,0,0,33.72,137.82Z" style="fill: #03a550"/>
        <path d="M29,136.26a1.56,1.56,0,1,0,1.56,1.56A1.56,1.56,0,0,0,29,136.26Z" style="fill: #fdcd0d"/>
        <circle cx="25.92" cy="134.7" r="1.56" style="fill: #eb2227"/>
        <path d="M58.8,119.47a1.6,1.6,0,1,0-1.59-1.6A1.6,1.6,0,0,0,58.8,119.47Z" style="fill: #eb2227"/>
        <circle cx="58.8" cy="112.36" r="1.59" style="fill: #03a550"/>
        <path d="M58.8,108.44a1.59,1.59,0,1,0-1.59-1.59A1.59,1.59,0,0,0,58.8,108.44Z" style="fill: #fdcd0d"/>
        <path d="M58.8,102.92a1.59,1.59,0,1,0-1.59-1.59A1.59,1.59,0,0,0,58.8,102.92Z" style="fill: #eb2227"/>
        <path d="M114.4,74.8A119.6,119.6,0,0,0,6,85.09c.15,6.32.55,13,1.28,20.14a253.09,253.09,0,0,0,5.15,30.86A15.23,15.23,0,0,0,21,143q-.43-6.87-.86-13.72A106,106,0,0,1,57,92.8a79.76,79.76,0,0,1,41.57,34.29q-1.71,6.65-3.43,13.28a13,13,0,0,0,11.57-8.14l-6.43-13.71a92.72,92.72,0,0,0-38.14-30,117.64,117.64,0,0,1,50.14-2.15Q113.33,80.6,114.4,74.8Z" style="fill: #471c43"/>
        <path d="M71.56,124.24a8.58,8.58,0,0,1,2.06-3c3.61-3.36,8.92-2.17,9.55-2l3.76.07a8.26,8.26,0,0,0-1.64-1.85A9.92,9.92,0,0,0,78,115.49a8.67,8.67,0,0,0-4.31,2,6.89,6.89,0,0,0-2.66,4.7,5.52,5.52,0,0,0,.25,2Z" style="fill: #9f3585"/>
        <path d="M45.36,123.89a9.47,9.47,0,0,0-2.57-3c-4.22-3.12-9.54-1.11-10.17-.85l-3.87.59a9,9,0,0,1,1.43-2.22,10,10,0,0,1,7.28-3.1,8.83,8.83,0,0,1,4.74,1.52,7.54,7.54,0,0,1,3.44,4.69,6.18,6.18,0,0,1,0,2.14Z" style="fill: #9f3585"/>
        <path d="M43.68,153.55c.71.27,1.29.45,1.69.57.58.17.85.22,1,.48a1.5,1.5,0,0,1,.08,1.28c-.45,1.75,2,4.64,2.55,5.28a13.61,13.61,0,0,0,8.46,4.37c.47,0,5.83.44,9.24-3A9.06,9.06,0,0,0,69.07,159a12.89,12.89,0,0,0,.65-2.65,1.44,1.44,0,0,1,.16-.81,2.23,2.23,0,0,1,1.87-.72,65.46,65.46,0,0,0-8.78.75c-1.59.24-3.09.53-4.5.86-1.64-.46-3.35-.89-5.15-1.29A94.46,94.46,0,0,0,43.68,153.55Z" style="fill: #d857a0"/>
        <path d="M49.75,155.1c-.33.64-.58,1.06-.83,1.53s-.48.9-.85,1.53a2,2,0,0,1,1.68-3.06Z" style="fill: #e262a5"/>
        <path d="M53.3,155.67a21.29,21.29,0,0,0-1.18,2.5,22.26,22.26,0,0,0-.78,2.66,3.49,3.49,0,0,1-.16-3A3.55,3.55,0,0,1,53.3,155.67Z" style="fill: #e262a5"/>
        <path d="M58.31,156.93c-.06.91-.09,1.62-.12,2.42a9,9,0,0,1-.38,2.47,4.44,4.44,0,0,1-.62-2.52A3,3,0,0,1,58.31,156.93Z" style="fill: #e262a5"/>
        <path d="M61.6,156.43a3.94,3.94,0,0,1,1.55,2.41,3.88,3.88,0,0,1-.35,2.85c-.27-1-.42-1.78-.62-2.63S61.77,157.41,61.6,156.43Z" style="fill: #e262a5"/>
        <path d="M65.44,156.13a.34.34,0,0,1,.37-.06.94.94,0,0,1,.32.23,2.92,2.92,0,0,1,.38.56,4.15,4.15,0,0,1,.44,1.22,3.64,3.64,0,0,1-.38,2.54,14.77,14.77,0,0,1-.6-2.35c-.07-.38-.14-.76-.19-1.15,0-.19-.06-.43-.07-.58S65.67,156.18,65.44,156.13Z" style="fill: #e262a5"/>
        <path d="M67.91,156a1.75,1.75,0,0,1,.83,1.05,1.73,1.73,0,0,1-.14,1.33,1.69,1.69,0,0,1-.82-1A1.77,1.77,0,0,1,67.91,156Z" style="fill: #e262a5"/>
      </g>
    </g>
  </g>
</svg>
