<svg aria-hidden="true" style="position: absolute; width: 0; height: 0; overflow: hidden;" version="1.1" xmlns="http://www.w3.org/2000/svg" xmlns:xlink="http://www.w3.org/1999/xlink">
<defs>
<symbol id="icon-heart-outlined" viewBox="0 0 20 20">
<path d="M17.19 4.156c-1.672-1.535-4.383-1.535-6.055 0l-1.135 1.041-1.136-1.041c-1.672-1.535-4.382-1.535-6.054 0-1.881 1.726-1.881 4.519 0 6.245l7.19 6.599 7.19-6.599c1.88-1.726 1.88-4.52 0-6.245zM16.124 9.375l-6.124 5.715-6.125-5.715c-0.617-0.567-0.856-1.307-0.856-2.094s0.138-1.433 0.756-1.999c0.545-0.501 1.278-0.777 2.063-0.777s1.517 0.476 2.062 0.978l2.1 1.825 2.099-1.826c0.546-0.502 1.278-0.978 2.063-0.978s1.518 0.276 2.063 0.777c0.618 0.566 0.755 1.212 0.755 1.999s-0.238 1.528-0.856 2.095z"></path>
</symbol>
<symbol id="icon-heart" viewBox="0 0 20 20">
<path d="M17.19 4.155c-1.672-1.534-4.383-1.534-6.055 0l-1.135 1.042-1.136-1.042c-1.672-1.534-4.382-1.534-6.054 0-1.881 1.727-1.881 4.52 0 6.246l7.19 6.599 7.19-6.599c1.88-1.726 1.88-4.52 0-6.246z"></path>
</symbol>
<symbol id="icon-image-inverted" viewBox="0 0 20 20">
<path d="M18 3h-16c-0.553 0-1 0.447-1 1v12c0 0.552 0.447 1 1 1h16c0.553 0 1-0.448 1-1v-12c0-0.552-0.447-1-1-1zM13.25 6.5c0.69 0 1.25 0.56 1.25 1.25s-0.56 1.25-1.25 1.25-1.25-0.56-1.25-1.25 0.56-1.25 1.25-1.25zM4 14l3.314-7.619 3.769 6.102 3.231-1.605 1.686 3.122h-12z"></path>
</symbol>
<symbol id="icon-location" viewBox="0 0 20 20">
<path d="M19.367 18.102l-1.367-4.102h-1.5l0.833 4h-14.666l0.833-4h-1.5l-1.368 4.102c-0.347 1.044 0.268 1.898 1.368 1.898h16c1.1 0 1.715-0.854 1.367-1.898zM15 5c0-2.761-2.238-5-5-5s-5 2.239-5 5c0 4.775 5 10 5 10s5-5.225 5-10zM7.3 5.060c0-1.491 1.208-2.699 2.7-2.699s2.7 1.208 2.7 2.699c0 1.492-1.209 2.7-2.7 2.7s-2.7-1.209-2.7-2.7z"></path>
</symbol>
<symbol id="icon-phone" viewBox="0 0 20 20">
<path d="M11.229 11.229c-1.583 1.582-3.417 3.096-4.142 2.371-1.037-1.037-1.677-1.941-3.965-0.102-2.287 1.838-0.53 3.064 0.475 4.068 1.16 1.16 5.484 0.062 9.758-4.211 4.273-4.274 5.368-8.598 4.207-9.758-1.005-1.006-2.225-2.762-4.063-0.475s-0.936 2.927 0.103 3.965c0.722 0.725-0.791 2.559-2.373 4.142z"></path>
</symbol>
<symbol id="icon-squared-minus" viewBox="0 0 20 20">
<path d="M16 2h-12c-1.1 0-2 0.9-2 2v12c0 1.1 0.9 2 2 2h12c1.1 0 2-0.9 2-2v-12c0-1.1-0.9-2-2-2zM15 11h-10v-2h10v2z"></path>
</symbol>
<symbol id="icon-squared-plus" viewBox="0 0 20 20">
<path d="M16 2h-12c-1.1 0-2 0.9-2 2v12c0 1.1 0.9 2 2 2h12c1.1 0 2-0.9 2-2v-12c0-1.1-0.9-2-2-2zM15 11h-4v4h-2v-4h-4v-2h4v-4h2v4h4v2z"></path>
</symbol>
<symbol id="icon-star-outlined" viewBox="0 0 20 20">
<path d="M18.8 8.022h-6.413l-2.387-6.722-2.389 6.722h-6.412l5.232 3.947-1.871 6.929 5.44-4.154 5.438 4.154-1.869-6.929 5.231-3.947zM10 12.783l-3.014 2.5 1.243-3.562-2.851-2.3 3.522 0.101 1.1-4.040 1.099 4.040 3.521-0.101-2.851 2.3 1.243 3.562-3.012-2.5z"></path>
</symbol>
<symbol id="icon-star" viewBox="0 0 20 20">
<path d="M10 1.3l2.388 6.722h6.412l-5.232 3.948 1.871 6.928-5.439-4.154-5.438 4.154 1.87-6.928-5.233-3.948h6.412l2.389-6.722z"></path>
</symbol>
<symbol id="icon-unread" viewBox="0 0 20 20">
<path d="M17 3c-1.104 0-2 0.895-2 2s0.896 2 2 2 2-0.895 2-2c0-1.105-0.896-2-2-2zM12.5 4h-11c-0.276 0-0.5 0.224-0.5 0.5v1c0 0.276 0.224 0.5 0.5 0.5h11c0.276 0 0.5-0.224 0.5-0.5v-1c0-0.276-0.224-0.5-0.5-0.5zM12.5 9h-11c-0.276 0-0.5 0.224-0.5 0.5v1c0 0.276 0.224 0.5 0.5 0.5h11c0.276 0 0.5-0.224 0.5-0.5v-1c0-0.276-0.224-0.5-0.5-0.5zM12.5 14h-11c-0.276 0-0.5 0.224-0.5 0.5v1c0 0.276 0.224 0.5 0.5 0.5h11c0.276 0 0.5-0.224 0.5-0.5v-1c0-0.276-0.224-0.5-0.5-0.5z"></path>
</symbol>
<symbol id="icon-facebook-with-circle" viewBox="0 0 20 20">
<path d="M10 0.4c-5.302 0-9.6 4.298-9.6 9.6s4.298 9.6 9.6 9.6 9.6-4.298 9.6-9.6-4.298-9.6-9.6-9.6zM12.274 7.034h-1.443c-0.171 0-0.361 0.225-0.361 0.524v1.042h1.805l-0.273 1.486h-1.532v4.461h-1.703v-4.461h-1.545v-1.486h1.545v-0.874c0-1.254 0.87-2.273 2.064-2.273h1.443v1.581z"></path>
</symbol>
<symbol id="icon-instagram-with-circle" viewBox="0 0 20 20">
<path d="M13 10c0 1.657-1.343 3-3 3s-3-1.343-3-3c0-0.171 0.018-0.338 0.049-0.5h-1.049v3.997c0 0.278 0.225 0.503 0.503 0.503h6.995c0.277 0 0.502-0.225 0.502-0.503v-3.997h-1.049c0.031 0.162 0.049 0.329 0.049 0.5zM10 12c1.104 0 2-0.896 2-2s-0.896-2-2-2-2 0.896-2 2 0.896 2 2 2zM12.4 7.9h1.199c0.166 0 0.301-0.135 0.301-0.3v-1.199c0-0.166-0.135-0.301-0.301-0.301h-1.199c-0.166 0-0.301 0.135-0.301 0.301v1.199c0.001 0.165 0.136 0.3 0.301 0.3zM10 0.4c-5.302 0-9.6 4.298-9.6 9.6s4.298 9.6 9.6 9.6c5.302 0 9.6-4.298 9.6-9.6s-4.298-9.6-9.6-9.6zM15 13.889c0 0.611-0.5 1.111-1.111 1.111h-7.778c-0.611 0-1.111-0.5-1.111-1.111v-7.778c0-0.611 0.5-1.111 1.111-1.111h7.778c0.611 0 1.111 0.5 1.111 1.111v7.778z"></path>
</symbol>
<symbol id="icon-twitter-with-circle" viewBox="0 0 20 20">
<path d="M10 0.4c-5.302 0-9.6 4.298-9.6 9.6s4.298 9.6 9.6 9.6 9.6-4.298 9.6-9.6-4.298-9.6-9.6-9.6zM13.905 8.264c0.004 0.082 0.005 0.164 0.005 0.244 0 2.5-1.901 5.381-5.379 5.381-1.068 0-2.062-0.312-2.898-0.85 0.147 0.018 0.298 0.025 0.451 0.025 0.886 0 1.701-0.301 2.348-0.809-0.827-0.016-1.525-0.562-1.766-1.312 0.115 0.021 0.233 0.033 0.355 0.033 0.172 0 0.34-0.023 0.498-0.066-0.865-0.174-1.517-0.938-1.517-1.854v-0.023c0.255 0.141 0.547 0.227 0.857 0.237-0.508-0.34-0.841-0.918-0.841-1.575 0-0.346 0.093-0.672 0.256-0.951 0.933 1.144 2.325 1.896 3.897 1.977-0.033-0.139-0.049-0.283-0.049-0.432 0-1.043 0.846-1.891 1.891-1.891 0.543 0 1.035 0.23 1.38 0.598 0.431-0.086 0.835-0.242 1.2-0.459-0.141 0.441-0.44 0.812-0.831 1.047 0.383-0.047 0.747-0.148 1.086-0.299-0.253 0.379-0.574 0.713-0.943 0.979z"></path>
</symbol>
</defs>
</svg>
